M48
METRIC,LZ,000.000
;FILE_FORMAT=3:3
;TYPE=PLATED
;Layer: PTH_Through
;EasyEDA v6.5.23, 2023-09-19 16:20:23
;fec3ef732f994282af85564de1ff210d,c045908398b64bc89dde678931a0b1f3,10
;Gerber Generator version 0.2
;Holesize 1 = 0.701 mm
T01C0.701
;Holesize 2 = 0.889 mm
T02C0.889
;Holesize 3 = 0.900 mm
T03C0.900
;Holesize 4 = 0.915 mm
T04C0.915
;Holesize 5 = 0.966 mm
T05C0.966
;Holesize 6 = 1.000 mm
T06C1.000
;Holesize 7 = 1.100 mm
T07C1.100
;Holesize 8 = 1.101 mm
T08C1.101
;Holesize 9 = 1.600 mm
T09C1.600
;Holesize 10 = 3.000 mm
T10C3.000
%
G05
G90
T01
X016553Y037465
X006053Y037465
T02
X002992Y040690
X000452Y040690
X-002088Y040690
X002992Y037490
X000452Y037490
X-002088Y037490
X002992Y034290
X000452Y034290
X-002088Y034290
X032992Y040690
X030452Y040690
X027912Y040690
X032992Y037490
X030452Y037490
X027912Y037490
X032992Y034290
X030452Y034290
X027912Y034290
X062992Y040690
X060452Y040690
X057912Y040690
X062992Y037490
X060452Y037490
X057912Y037490
X062992Y034290
X060452Y034290
X057912Y034290
X002992Y077901
X000452Y077901
X-002088Y077901
X002992Y074701
X000452Y074701
X-002088Y074701
X002992Y071501
X000452Y071501
X-002088Y071501
X032992Y077901
X030452Y077901
X027912Y077901
X032992Y074701
X030452Y074701
X027912Y074701
X032992Y071501
X030452Y071501
X027912Y071501
X062992Y077901
X060452Y077901
X057912Y077901
X062992Y074701
X060452Y074701
X057912Y074701
X062992Y071501
X060452Y071501
X057912Y071501
T03
X089027Y075057
X078867Y075057
T04
X020066Y035771
X020066Y046271
T05
X074295Y075057
X071755Y075057
T06
X003175Y052451
X003175Y047371
X010569Y074549
X014069Y074549
X012827Y046442
X012827Y041442
X012827Y049697
X012827Y054697
X018963Y074422
X023963Y074422
X083217Y038735
X074517Y038735
T07
X105664Y064960G85X105664Y064960
X103124Y064960G85X103124Y064960
X100584Y064960G85X100584Y064960
X098044Y064960G85X098044Y064960
X095504Y064960G85X095504Y064960
X092964Y064960G85X092964Y064960
X090424Y064960G85X090424Y064960
X087884Y064960G85X087884Y064960
X085344Y064960G85X085344Y064960
X082804Y064960G85X082804Y064960
X080264Y064960G85X080264Y064960
X077724Y064960G85X077724Y064960
X075184Y064960G85X075184Y064960
X072644Y064960G85X072644Y064960
X070104Y064960G85X070104Y064960
X067564Y064960G85X067564Y064960
X065024Y064960G85X065024Y064960
X062484Y064960G85X062484Y064960
X059944Y064960G85X059944Y064960
X057404Y064960G85X057404Y064960
X057404Y047180G85X057404Y047180
X059944Y047180G85X059944Y047180
X062484Y047180G85X062484Y047180
X065024Y047180G85X065024Y047180
X067564Y047180G85X067564Y047180
X070104Y047180G85X070104Y047180
X072644Y047180G85X072644Y047180
X075184Y047180G85X075184Y047180
X077724Y047180G85X077724Y047180
X080264Y047180G85X080264Y047180
X082804Y047180G85X082804Y047180
X085344Y047180G85X085344Y047180
X087884Y047180G85X087884Y047180
X090424Y047180G85X090424Y047180
X092964Y047180G85X092964Y047180
X095504Y047180G85X095504Y047180
X098044Y047180G85X098044Y047180
X100584Y047180G85X100584Y047180
X103124Y047180G85X103124Y047180
X105664Y047180G85X105664Y047180
T08
X-007366Y060170
X-007366Y056670
T09
X033343Y050292
X019743Y050292
T10
X099060Y072517
X099060Y039624
X-006350Y048260
M30
