G04 Layer: TopPasteMaskLayer*
G04 EasyEDA v6.5.23, 2023-09-19 16:20:23*
G04 fec3ef732f994282af85564de1ff210d,c045908398b64bc89dde678931a0b1f3,10*
G04 Gerber Generator version 0.2*
G04 Scale: 100 percent, Rotated: No, Reflected: No *
G04 Dimensions in millimeters *
G04 leading zeros omitted , absolute positions ,4 integer and 5 decimal *
%FSLAX45Y45*%
%MOMM*%

%AMMACRO1*4,1,8,-4.064,3.683,2.54,3.683,2.54,5.461,4.064,5.461,4.064,-5.461,2.54,-5.461,2.54,-4.3175,-4.064,-4.3175,-4.064,3.683,0*%
%ADD10R,4.1850X5.5000*%
%ADD11R,3.2000X1.1500*%
%ADD12MACRO1*%
%ADD13R,1.0008X1.3005*%
%ADD14R,1.3005X1.0008*%

%LPD*%
D10*
G01*
X1975358Y6184900D03*
G01*
X3053841Y6184900D03*
D11*
G01*
X273913Y5869939D03*
G01*
X273913Y6040120D03*
G01*
X273913Y6380479D03*
G01*
X273913Y6210300D03*
G01*
X273913Y6550660D03*
D12*
G01*
X1275473Y6210300D03*
D13*
G01*
X4521200Y4406900D03*
G01*
X4071620Y4406900D03*
G01*
X4221479Y4406900D03*
G01*
X4371340Y4406900D03*
G01*
X4673600Y4406900D03*
G01*
X4823459Y4406900D03*
G01*
X4973320Y4406900D03*
G01*
X5123179Y4406900D03*
D14*
G01*
X5247640Y4587239D03*
G01*
X5247640Y4737100D03*
G01*
X5247640Y4886960D03*
G01*
X5247640Y5036820D03*
G01*
X5247640Y5186679D03*
G01*
X5247640Y5336539D03*
G01*
X5247640Y5486400D03*
G01*
X5247640Y5636260D03*
G01*
X5247640Y5786120D03*
G01*
X5247640Y5935979D03*
G01*
X5247640Y6085839D03*
G01*
X5247640Y6235700D03*
G01*
X5247640Y6388100D03*
G01*
X3947159Y6388100D03*
G01*
X3947159Y6235700D03*
G01*
X3947159Y6085839D03*
G01*
X3947159Y5935979D03*
G01*
X3947159Y5786120D03*
G01*
X3947159Y5636260D03*
G01*
X3947159Y5486400D03*
G01*
X3947159Y5336539D03*
G01*
X3947159Y5186679D03*
G01*
X3947159Y5036820D03*
G01*
X3947159Y4886960D03*
G01*
X3947159Y4737100D03*
G01*
X3947159Y4587239D03*
M02*
