G04 Layer: BottomLayer*
G04 EasyEDA v6.5.23, 2023-09-19 16:20:23*
G04 fec3ef732f994282af85564de1ff210d,c045908398b64bc89dde678931a0b1f3,10*
G04 Gerber Generator version 0.2*
G04 Scale: 100 percent, Rotated: No, Reflected: No *
G04 Dimensions in millimeters *
G04 leading zeros omitted , absolute positions ,4 integer and 5 decimal *
%FSLAX45Y45*%
%MOMM*%

%ADD10C,0.5000*%
%ADD11C,0.3000*%
%ADD12C,1.6000*%
%ADD13C,2.4000*%
%ADD14C,1.5748*%
%ADD15R,1.5748X1.5748*%
%ADD16C,1.6510*%
%ADD17C,1.4000*%
%ADD18C,1.8796*%
%ADD19R,1.9000X1.9000*%
%ADD20C,1.9000*%
%ADD21C,1.8000*%
%ADD22C,5.5000*%
%ADD23C,0.6100*%
%ADD24C,1.0000*%
%ADD25C,0.0138*%

%LPD*%
D10*
X-208787Y7150100D02*
G01*
X-208787Y6965187D01*
X203200Y6553200D01*
X520700Y6553200D01*
D11*
X5740400Y4717999D02*
G01*
X5740400Y5413120D01*
X4917820Y6235700D01*
X5994400Y4717999D02*
G01*
X5994400Y5265750D01*
X4872050Y6388100D01*
X8534400Y6495999D02*
G01*
X7391400Y5352999D01*
X7391400Y4267911D01*
X7192492Y4069003D01*
X5572252Y5495137D02*
G01*
X4146118Y4069003D01*
X3299206Y4069003D01*
X299212Y3748989D02*
G01*
X299212Y3834434D01*
X1252499Y4787722D01*
X2015769Y4787722D01*
X4008323Y6780276D01*
X299212Y4069003D02*
G01*
X184912Y3954703D01*
X184912Y3697655D01*
X250291Y3632276D01*
X1754555Y3632276D01*
X2583052Y4460773D01*
X4446041Y4460773D01*
X5431866Y5446598D01*
X2006600Y4627118D02*
G01*
X1655292Y4275810D01*
X1655292Y3746500D01*
X8321700Y3873500D02*
G01*
X8765870Y4317669D01*
X9984968Y4317669D01*
X10312400Y4645101D01*
X10312400Y4717999D01*
X9550400Y4717999D02*
G01*
X9931400Y5098999D01*
X9931400Y6705676D01*
X9131376Y7505700D01*
X8902700Y7505700D01*
X6299200Y7150100D02*
G01*
X6375400Y7073900D01*
X6375400Y5098999D01*
X6756400Y4717999D01*
X6299200Y7470089D02*
G01*
X6139205Y7310094D01*
X6039104Y7310094D01*
X5925718Y7196709D01*
X5925718Y7064349D01*
X6121400Y6868668D01*
X6121400Y5098999D01*
X6502400Y4717999D01*
X6299200Y7790103D02*
G01*
X6139205Y7630109D01*
X6037605Y7630109D01*
X5902959Y7495463D01*
X5902959Y7369708D01*
X5862167Y7328915D01*
X5756071Y7328915D01*
X5672607Y7245451D01*
X5672607Y6563791D01*
X5740400Y6495999D01*
X8026400Y6495999D02*
G01*
X6883298Y5352897D01*
X6883298Y4013098D01*
X6299200Y3429000D01*
X6299200Y3748989D02*
G01*
X6189725Y3639515D01*
X6189725Y3377387D01*
X6247231Y3319881D01*
X6349263Y3319881D01*
X7137400Y4108018D01*
X7137400Y5352999D01*
X8280400Y6495999D01*
X3299206Y3429000D02*
G01*
X3454527Y3273679D01*
X6496481Y3273679D01*
X7645400Y4422597D01*
X7645400Y5098999D01*
X9042400Y6495999D01*
X3299206Y3748989D02*
G01*
X3189808Y3639591D01*
X3189808Y3380714D01*
X3346856Y3223666D01*
X6613474Y3223666D01*
X7899400Y4509592D01*
X7899400Y5098999D01*
X9296400Y6495999D01*
X299212Y7470089D02*
G01*
X842949Y8013827D01*
X6399758Y8013827D01*
X7264400Y7149185D01*
X7264400Y6495999D01*
X299212Y3429000D02*
G01*
X564184Y3164027D01*
X7053783Y3164027D01*
X8407400Y4517644D01*
X8407400Y5098999D01*
X9804400Y6495999D01*
X299212Y7790103D02*
G01*
X571423Y8062315D01*
X6424701Y8062315D01*
X7772400Y6714617D01*
X7772400Y6495999D01*
X3299206Y7150100D02*
G01*
X4926228Y7150100D01*
X5707176Y6369151D01*
X5867552Y6369151D01*
X5994400Y6495999D01*
X3299206Y7470089D02*
G01*
X3735679Y7906562D01*
X6338493Y7906562D01*
X6502400Y7742656D01*
X6502400Y6495999D01*
X3299206Y7790103D02*
G01*
X3462858Y7953755D01*
X6377304Y7953755D01*
X6756400Y7574661D01*
X6756400Y6495999D01*
X299212Y7150100D02*
G01*
X594283Y6855028D01*
X4023817Y6855028D01*
X4187139Y6691706D01*
X4187139Y6528333D01*
G36*
X10648899Y6495986D02*
G01*
X10648238Y6485648D01*
X10646308Y6475463D01*
X10643108Y6465608D01*
X10638688Y6456235D01*
X10633151Y6447497D01*
X10626547Y6439522D01*
X10618977Y6432410D01*
X10610595Y6426339D01*
X10601528Y6421335D01*
X10591901Y6417525D01*
X10581868Y6414960D01*
X10571581Y6413639D01*
X10561218Y6413639D01*
X10550931Y6414960D01*
X10540898Y6417525D01*
X10531271Y6421335D01*
X10522204Y6426339D01*
X10513822Y6432410D01*
X10506252Y6439522D01*
X10499648Y6447497D01*
X10494111Y6456235D01*
X10489691Y6465608D01*
X10486491Y6475463D01*
X10484561Y6485648D01*
X10483900Y6495986D01*
X10483900Y6660984D01*
X10484561Y6671322D01*
X10486491Y6681508D01*
X10489691Y6691363D01*
X10494111Y6700735D01*
X10499648Y6709473D01*
X10506252Y6717449D01*
X10513822Y6724561D01*
X10522204Y6730631D01*
X10531271Y6735635D01*
X10540898Y6739445D01*
X10550931Y6742036D01*
X10561218Y6743331D01*
X10571581Y6743331D01*
X10581868Y6742036D01*
X10591901Y6739445D01*
X10601528Y6735635D01*
X10610595Y6730631D01*
X10618977Y6724561D01*
X10626547Y6717449D01*
X10633151Y6709473D01*
X10638688Y6700735D01*
X10643108Y6691363D01*
X10646308Y6681508D01*
X10648238Y6671322D01*
X10648899Y6660984D01*
G37*
G36*
X10394899Y6495986D02*
G01*
X10394238Y6485648D01*
X10392308Y6475463D01*
X10389108Y6465608D01*
X10384688Y6456235D01*
X10379151Y6447497D01*
X10372547Y6439522D01*
X10364977Y6432410D01*
X10356595Y6426339D01*
X10347528Y6421335D01*
X10337901Y6417525D01*
X10327868Y6414960D01*
X10317581Y6413639D01*
X10307218Y6413639D01*
X10296931Y6414960D01*
X10286898Y6417525D01*
X10277271Y6421335D01*
X10268204Y6426339D01*
X10259822Y6432410D01*
X10252252Y6439522D01*
X10245648Y6447497D01*
X10240111Y6456235D01*
X10235691Y6465608D01*
X10232491Y6475463D01*
X10230561Y6485648D01*
X10229900Y6495986D01*
X10229900Y6660984D01*
X10230561Y6671322D01*
X10232491Y6681508D01*
X10235691Y6691363D01*
X10240111Y6700735D01*
X10245648Y6709473D01*
X10252252Y6717449D01*
X10259822Y6724561D01*
X10268204Y6730631D01*
X10277271Y6735635D01*
X10286898Y6739445D01*
X10296931Y6742036D01*
X10307218Y6743331D01*
X10317581Y6743331D01*
X10327868Y6742036D01*
X10337901Y6739445D01*
X10347528Y6735635D01*
X10356595Y6730631D01*
X10364977Y6724561D01*
X10372547Y6717449D01*
X10379151Y6709473D01*
X10384688Y6700735D01*
X10389108Y6691363D01*
X10392308Y6681508D01*
X10394238Y6671322D01*
X10394899Y6660984D01*
G37*
G36*
X10140899Y6495986D02*
G01*
X10140238Y6485648D01*
X10138308Y6475463D01*
X10135108Y6465608D01*
X10130688Y6456235D01*
X10125151Y6447497D01*
X10118547Y6439522D01*
X10110977Y6432410D01*
X10102595Y6426339D01*
X10093528Y6421335D01*
X10083901Y6417525D01*
X10073868Y6414960D01*
X10063581Y6413639D01*
X10053218Y6413639D01*
X10042931Y6414960D01*
X10032898Y6417525D01*
X10023271Y6421335D01*
X10014204Y6426339D01*
X10005822Y6432410D01*
X9998252Y6439522D01*
X9991648Y6447497D01*
X9986111Y6456235D01*
X9981691Y6465608D01*
X9978491Y6475463D01*
X9976561Y6485648D01*
X9975900Y6495986D01*
X9975900Y6660984D01*
X9976561Y6671322D01*
X9978491Y6681508D01*
X9981691Y6691363D01*
X9986111Y6700735D01*
X9991648Y6709473D01*
X9998252Y6717449D01*
X10005822Y6724561D01*
X10014204Y6730631D01*
X10023271Y6735635D01*
X10032898Y6739445D01*
X10042931Y6742036D01*
X10053218Y6743331D01*
X10063581Y6743331D01*
X10073868Y6742036D01*
X10083901Y6739445D01*
X10093528Y6735635D01*
X10102595Y6730631D01*
X10110977Y6724561D01*
X10118547Y6717449D01*
X10125151Y6709473D01*
X10130688Y6700735D01*
X10135108Y6691363D01*
X10138308Y6681508D01*
X10140238Y6671322D01*
X10140899Y6660984D01*
G37*
G36*
X9886899Y6495986D02*
G01*
X9886238Y6485648D01*
X9884308Y6475463D01*
X9881108Y6465608D01*
X9876688Y6456235D01*
X9871151Y6447497D01*
X9864547Y6439522D01*
X9856977Y6432410D01*
X9848595Y6426339D01*
X9839528Y6421335D01*
X9829901Y6417525D01*
X9819868Y6414960D01*
X9809581Y6413639D01*
X9799218Y6413639D01*
X9788931Y6414960D01*
X9778898Y6417525D01*
X9769271Y6421335D01*
X9760204Y6426339D01*
X9751822Y6432410D01*
X9744252Y6439522D01*
X9737648Y6447497D01*
X9732111Y6456235D01*
X9727691Y6465608D01*
X9724491Y6475463D01*
X9722561Y6485648D01*
X9721900Y6495986D01*
X9721900Y6660984D01*
X9722561Y6671322D01*
X9724491Y6681508D01*
X9727691Y6691363D01*
X9732111Y6700735D01*
X9737648Y6709473D01*
X9744252Y6717449D01*
X9751822Y6724561D01*
X9760204Y6730631D01*
X9769271Y6735635D01*
X9778898Y6739445D01*
X9788931Y6742036D01*
X9799218Y6743331D01*
X9809581Y6743331D01*
X9819868Y6742036D01*
X9829901Y6739445D01*
X9839528Y6735635D01*
X9848595Y6730631D01*
X9856977Y6724561D01*
X9864547Y6717449D01*
X9871151Y6709473D01*
X9876688Y6700735D01*
X9881108Y6691363D01*
X9884308Y6681508D01*
X9886238Y6671322D01*
X9886899Y6660984D01*
G37*
G36*
X9632899Y6495986D02*
G01*
X9632238Y6485648D01*
X9630308Y6475463D01*
X9627108Y6465608D01*
X9622688Y6456235D01*
X9617151Y6447497D01*
X9610547Y6439522D01*
X9602977Y6432410D01*
X9594595Y6426339D01*
X9585528Y6421335D01*
X9575901Y6417525D01*
X9565868Y6414960D01*
X9555581Y6413639D01*
X9545218Y6413639D01*
X9534931Y6414960D01*
X9524898Y6417525D01*
X9515271Y6421335D01*
X9506204Y6426339D01*
X9497822Y6432410D01*
X9490252Y6439522D01*
X9483648Y6447497D01*
X9478111Y6456235D01*
X9473691Y6465608D01*
X9470491Y6475463D01*
X9468561Y6485648D01*
X9467900Y6495986D01*
X9467900Y6660984D01*
X9468561Y6671322D01*
X9470491Y6681508D01*
X9473691Y6691363D01*
X9478111Y6700735D01*
X9483648Y6709473D01*
X9490252Y6717449D01*
X9497822Y6724561D01*
X9506204Y6730631D01*
X9515271Y6735635D01*
X9524898Y6739445D01*
X9534931Y6742036D01*
X9545218Y6743331D01*
X9555581Y6743331D01*
X9565868Y6742036D01*
X9575901Y6739445D01*
X9585528Y6735635D01*
X9594595Y6730631D01*
X9602977Y6724561D01*
X9610547Y6717449D01*
X9617151Y6709473D01*
X9622688Y6700735D01*
X9627108Y6691363D01*
X9630308Y6681508D01*
X9632238Y6671322D01*
X9632899Y6660984D01*
G37*
G36*
X9378899Y6495986D02*
G01*
X9378264Y6485648D01*
X9376308Y6475463D01*
X9373108Y6465608D01*
X9368688Y6456235D01*
X9363151Y6447497D01*
X9356547Y6439522D01*
X9348977Y6432410D01*
X9340595Y6426339D01*
X9331528Y6421335D01*
X9321901Y6417525D01*
X9311868Y6414960D01*
X9301581Y6413639D01*
X9291218Y6413639D01*
X9280931Y6414960D01*
X9270898Y6417525D01*
X9261271Y6421335D01*
X9252204Y6426339D01*
X9243822Y6432410D01*
X9236252Y6439522D01*
X9229648Y6447497D01*
X9224111Y6456235D01*
X9219691Y6465608D01*
X9216491Y6475463D01*
X9214561Y6485648D01*
X9213900Y6495986D01*
X9213900Y6660984D01*
X9214561Y6671322D01*
X9216491Y6681508D01*
X9219691Y6691363D01*
X9224111Y6700735D01*
X9229648Y6709473D01*
X9236252Y6717449D01*
X9243822Y6724561D01*
X9252204Y6730631D01*
X9261271Y6735635D01*
X9270898Y6739445D01*
X9280931Y6742036D01*
X9291218Y6743331D01*
X9301581Y6743331D01*
X9311868Y6742036D01*
X9321901Y6739445D01*
X9331528Y6735635D01*
X9340595Y6730631D01*
X9348977Y6724561D01*
X9356547Y6717449D01*
X9363151Y6709473D01*
X9368688Y6700735D01*
X9373108Y6691363D01*
X9376308Y6681508D01*
X9378264Y6671322D01*
X9378899Y6660984D01*
G37*
G36*
X9124899Y6495986D02*
G01*
X9124264Y6485648D01*
X9122308Y6475463D01*
X9119108Y6465608D01*
X9114688Y6456235D01*
X9109151Y6447497D01*
X9102547Y6439522D01*
X9094977Y6432410D01*
X9086595Y6426339D01*
X9077528Y6421335D01*
X9067901Y6417525D01*
X9057868Y6414960D01*
X9047581Y6413639D01*
X9037218Y6413639D01*
X9026956Y6414960D01*
X9016898Y6417525D01*
X9007271Y6421335D01*
X8998204Y6426339D01*
X8989822Y6432410D01*
X8982252Y6439522D01*
X8975648Y6447497D01*
X8970111Y6456235D01*
X8965691Y6465608D01*
X8962491Y6475463D01*
X8960561Y6485648D01*
X8959900Y6495986D01*
X8959900Y6660984D01*
X8960561Y6671322D01*
X8962491Y6681508D01*
X8965691Y6691363D01*
X8970111Y6700735D01*
X8975648Y6709473D01*
X8982252Y6717449D01*
X8989822Y6724561D01*
X8998204Y6730631D01*
X9007271Y6735635D01*
X9016898Y6739445D01*
X9026956Y6742036D01*
X9037218Y6743331D01*
X9047581Y6743331D01*
X9057868Y6742036D01*
X9067901Y6739445D01*
X9077528Y6735635D01*
X9086595Y6730631D01*
X9094977Y6724561D01*
X9102547Y6717449D01*
X9109151Y6709473D01*
X9114688Y6700735D01*
X9119108Y6691363D01*
X9122308Y6681508D01*
X9124264Y6671322D01*
X9124899Y6660984D01*
G37*
G36*
X8870899Y6495986D02*
G01*
X8870264Y6485648D01*
X8868308Y6475463D01*
X8865108Y6465608D01*
X8860688Y6456235D01*
X8855151Y6447497D01*
X8848547Y6439522D01*
X8841003Y6432410D01*
X8832621Y6426339D01*
X8823528Y6421335D01*
X8813901Y6417525D01*
X8803868Y6414960D01*
X8793581Y6413639D01*
X8783218Y6413639D01*
X8772956Y6414960D01*
X8762898Y6417525D01*
X8753271Y6421335D01*
X8744204Y6426339D01*
X8735822Y6432410D01*
X8728252Y6439522D01*
X8721648Y6447497D01*
X8716111Y6456235D01*
X8711691Y6465608D01*
X8708491Y6475463D01*
X8706561Y6485648D01*
X8705900Y6495986D01*
X8705900Y6660984D01*
X8706561Y6671322D01*
X8708491Y6681508D01*
X8711691Y6691363D01*
X8716111Y6700735D01*
X8721648Y6709473D01*
X8728252Y6717449D01*
X8735822Y6724561D01*
X8744204Y6730631D01*
X8753271Y6735635D01*
X8762898Y6739445D01*
X8772956Y6742036D01*
X8783218Y6743331D01*
X8793581Y6743331D01*
X8803868Y6742036D01*
X8813901Y6739445D01*
X8823528Y6735635D01*
X8832621Y6730631D01*
X8841003Y6724561D01*
X8848547Y6717449D01*
X8855151Y6709473D01*
X8860688Y6700735D01*
X8865108Y6691363D01*
X8868308Y6681508D01*
X8870264Y6671322D01*
X8870899Y6660984D01*
G37*
G36*
X8616899Y6495986D02*
G01*
X8616264Y6485648D01*
X8614308Y6475463D01*
X8611108Y6465608D01*
X8606688Y6456235D01*
X8601151Y6447497D01*
X8594547Y6439522D01*
X8587003Y6432410D01*
X8578621Y6426339D01*
X8569528Y6421335D01*
X8559901Y6417525D01*
X8549868Y6414960D01*
X8539581Y6413639D01*
X8529218Y6413639D01*
X8518956Y6414960D01*
X8508898Y6417525D01*
X8499271Y6421335D01*
X8490204Y6426339D01*
X8481822Y6432410D01*
X8474252Y6439522D01*
X8467648Y6447497D01*
X8462111Y6456235D01*
X8457691Y6465608D01*
X8454491Y6475463D01*
X8452561Y6485648D01*
X8451900Y6495986D01*
X8451900Y6660984D01*
X8452561Y6671322D01*
X8454491Y6681508D01*
X8457691Y6691363D01*
X8462111Y6700735D01*
X8467648Y6709473D01*
X8474252Y6717449D01*
X8481822Y6724561D01*
X8490204Y6730631D01*
X8499271Y6735635D01*
X8508898Y6739445D01*
X8518956Y6742036D01*
X8529218Y6743331D01*
X8539581Y6743331D01*
X8549868Y6742036D01*
X8559901Y6739445D01*
X8569528Y6735635D01*
X8578621Y6730631D01*
X8587003Y6724561D01*
X8594547Y6717449D01*
X8601151Y6709473D01*
X8606688Y6700735D01*
X8611108Y6691363D01*
X8614308Y6681508D01*
X8616264Y6671322D01*
X8616899Y6660984D01*
G37*
G36*
X8362899Y6495986D02*
G01*
X8362264Y6485648D01*
X8360308Y6475463D01*
X8357108Y6465608D01*
X8352688Y6456235D01*
X8347151Y6447497D01*
X8340547Y6439522D01*
X8333003Y6432410D01*
X8324621Y6426339D01*
X8315528Y6421335D01*
X8305901Y6417525D01*
X8295868Y6414960D01*
X8285581Y6413639D01*
X8275218Y6413639D01*
X8264956Y6414960D01*
X8254898Y6417525D01*
X8245271Y6421335D01*
X8236204Y6426339D01*
X8227822Y6432410D01*
X8220252Y6439522D01*
X8213648Y6447497D01*
X8208111Y6456235D01*
X8203691Y6465608D01*
X8200491Y6475463D01*
X8198561Y6485648D01*
X8197900Y6495986D01*
X8197900Y6660984D01*
X8198561Y6671322D01*
X8200491Y6681508D01*
X8203691Y6691363D01*
X8208111Y6700735D01*
X8213648Y6709473D01*
X8220252Y6717449D01*
X8227822Y6724561D01*
X8236204Y6730631D01*
X8245271Y6735635D01*
X8254898Y6739445D01*
X8264956Y6742036D01*
X8275218Y6743331D01*
X8285581Y6743331D01*
X8295868Y6742036D01*
X8305901Y6739445D01*
X8315528Y6735635D01*
X8324621Y6730631D01*
X8333003Y6724561D01*
X8340547Y6717449D01*
X8347151Y6709473D01*
X8352688Y6700735D01*
X8357108Y6691363D01*
X8360308Y6681508D01*
X8362264Y6671322D01*
X8362899Y6660984D01*
G37*
G36*
X8108899Y6495986D02*
G01*
X8108264Y6485648D01*
X8106308Y6475463D01*
X8103108Y6465608D01*
X8098688Y6456235D01*
X8093151Y6447497D01*
X8086547Y6439522D01*
X8079003Y6432410D01*
X8070621Y6426339D01*
X8061528Y6421335D01*
X8051901Y6417525D01*
X8041868Y6414960D01*
X8031581Y6413639D01*
X8021218Y6413639D01*
X8010956Y6414960D01*
X8000923Y6417525D01*
X7991271Y6421335D01*
X7982204Y6426339D01*
X7973822Y6432410D01*
X7966252Y6439522D01*
X7959648Y6447497D01*
X7954111Y6456235D01*
X7949691Y6465608D01*
X7946491Y6475463D01*
X7944561Y6485648D01*
X7943900Y6495986D01*
X7943900Y6660984D01*
X7944561Y6671322D01*
X7946491Y6681508D01*
X7949691Y6691363D01*
X7954111Y6700735D01*
X7959648Y6709473D01*
X7966252Y6717449D01*
X7973822Y6724561D01*
X7982204Y6730631D01*
X7991271Y6735635D01*
X8000923Y6739445D01*
X8010956Y6742036D01*
X8021218Y6743331D01*
X8031581Y6743331D01*
X8041868Y6742036D01*
X8051901Y6739445D01*
X8061528Y6735635D01*
X8070621Y6730631D01*
X8079003Y6724561D01*
X8086547Y6717449D01*
X8093151Y6709473D01*
X8098688Y6700735D01*
X8103108Y6691363D01*
X8106308Y6681508D01*
X8108264Y6671322D01*
X8108899Y6660984D01*
G37*
G36*
X7854899Y6495986D02*
G01*
X7854264Y6485648D01*
X7852308Y6475463D01*
X7849108Y6465608D01*
X7844688Y6456235D01*
X7839151Y6447497D01*
X7832547Y6439522D01*
X7825003Y6432410D01*
X7816621Y6426339D01*
X7807528Y6421335D01*
X7797901Y6417525D01*
X7787868Y6414960D01*
X7777581Y6413639D01*
X7767218Y6413639D01*
X7756956Y6414960D01*
X7746923Y6417525D01*
X7737271Y6421335D01*
X7728204Y6426339D01*
X7719822Y6432410D01*
X7712278Y6439522D01*
X7705674Y6447497D01*
X7700111Y6456235D01*
X7695691Y6465608D01*
X7692491Y6475463D01*
X7690561Y6485648D01*
X7689900Y6495986D01*
X7689900Y6660984D01*
X7690561Y6671322D01*
X7692491Y6681508D01*
X7695691Y6691363D01*
X7700111Y6700735D01*
X7705674Y6709473D01*
X7712278Y6717449D01*
X7719822Y6724561D01*
X7728204Y6730631D01*
X7737271Y6735635D01*
X7746923Y6739445D01*
X7756956Y6742036D01*
X7767218Y6743331D01*
X7777581Y6743331D01*
X7787868Y6742036D01*
X7797901Y6739445D01*
X7807528Y6735635D01*
X7816621Y6730631D01*
X7825003Y6724561D01*
X7832547Y6717449D01*
X7839151Y6709473D01*
X7844688Y6700735D01*
X7849108Y6691363D01*
X7852308Y6681508D01*
X7854264Y6671322D01*
X7854899Y6660984D01*
G37*
G36*
X7600899Y6495986D02*
G01*
X7600264Y6485648D01*
X7598308Y6475463D01*
X7595108Y6465608D01*
X7590713Y6456235D01*
X7585151Y6447497D01*
X7578547Y6439522D01*
X7571003Y6432410D01*
X7562621Y6426339D01*
X7553528Y6421335D01*
X7543901Y6417525D01*
X7533868Y6414960D01*
X7523581Y6413639D01*
X7513218Y6413639D01*
X7502956Y6414960D01*
X7492923Y6417525D01*
X7483271Y6421335D01*
X7474204Y6426339D01*
X7465822Y6432410D01*
X7458278Y6439522D01*
X7451674Y6447497D01*
X7446111Y6456235D01*
X7441691Y6465608D01*
X7438491Y6475463D01*
X7436561Y6485648D01*
X7435900Y6495986D01*
X7435900Y6660984D01*
X7436561Y6671322D01*
X7438491Y6681508D01*
X7441691Y6691363D01*
X7446111Y6700735D01*
X7451674Y6709473D01*
X7458278Y6717449D01*
X7465822Y6724561D01*
X7474204Y6730631D01*
X7483271Y6735635D01*
X7492923Y6739445D01*
X7502956Y6742036D01*
X7513218Y6743331D01*
X7523581Y6743331D01*
X7533868Y6742036D01*
X7543901Y6739445D01*
X7553528Y6735635D01*
X7562621Y6730631D01*
X7571003Y6724561D01*
X7578547Y6717449D01*
X7585151Y6709473D01*
X7590713Y6700735D01*
X7595108Y6691363D01*
X7598308Y6681508D01*
X7600264Y6671322D01*
X7600899Y6660984D01*
G37*
G36*
X7346899Y6495986D02*
G01*
X7346264Y6485648D01*
X7344308Y6475463D01*
X7341108Y6465608D01*
X7336713Y6456235D01*
X7331151Y6447497D01*
X7324547Y6439522D01*
X7317003Y6432410D01*
X7308621Y6426339D01*
X7299528Y6421335D01*
X7289901Y6417525D01*
X7279868Y6414960D01*
X7269581Y6413639D01*
X7259218Y6413639D01*
X7248956Y6414960D01*
X7238923Y6417525D01*
X7229271Y6421335D01*
X7220204Y6426339D01*
X7211822Y6432410D01*
X7204278Y6439522D01*
X7197674Y6447497D01*
X7192111Y6456235D01*
X7187691Y6465608D01*
X7184491Y6475463D01*
X7182561Y6485648D01*
X7181900Y6495986D01*
X7181900Y6660984D01*
X7182561Y6671322D01*
X7184491Y6681508D01*
X7187691Y6691363D01*
X7192111Y6700735D01*
X7197674Y6709473D01*
X7204278Y6717449D01*
X7211822Y6724561D01*
X7220204Y6730631D01*
X7229271Y6735635D01*
X7238923Y6739445D01*
X7248956Y6742036D01*
X7259218Y6743331D01*
X7269581Y6743331D01*
X7279868Y6742036D01*
X7289901Y6739445D01*
X7299528Y6735635D01*
X7308621Y6730631D01*
X7317003Y6724561D01*
X7324547Y6717449D01*
X7331151Y6709473D01*
X7336713Y6700735D01*
X7341108Y6691363D01*
X7344308Y6681508D01*
X7346264Y6671322D01*
X7346899Y6660984D01*
G37*
G36*
X7092899Y6495986D02*
G01*
X7092264Y6485648D01*
X7090308Y6475463D01*
X7087108Y6465608D01*
X7082713Y6456235D01*
X7077151Y6447497D01*
X7070547Y6439522D01*
X7063003Y6432410D01*
X7054621Y6426339D01*
X7045528Y6421335D01*
X7035901Y6417525D01*
X7025868Y6414960D01*
X7015581Y6413639D01*
X7005218Y6413639D01*
X6994956Y6414960D01*
X6984923Y6417525D01*
X6975271Y6421335D01*
X6966204Y6426339D01*
X6957822Y6432410D01*
X6950278Y6439522D01*
X6943674Y6447497D01*
X6938111Y6456235D01*
X6933691Y6465608D01*
X6930491Y6475463D01*
X6928561Y6485648D01*
X6927900Y6495986D01*
X6927900Y6660984D01*
X6928561Y6671322D01*
X6930491Y6681508D01*
X6933691Y6691363D01*
X6938111Y6700735D01*
X6943674Y6709473D01*
X6950278Y6717449D01*
X6957822Y6724561D01*
X6966204Y6730631D01*
X6975271Y6735635D01*
X6984923Y6739445D01*
X6994956Y6742036D01*
X7005218Y6743331D01*
X7015581Y6743331D01*
X7025868Y6742036D01*
X7035901Y6739445D01*
X7045528Y6735635D01*
X7054621Y6730631D01*
X7063003Y6724561D01*
X7070547Y6717449D01*
X7077151Y6709473D01*
X7082713Y6700735D01*
X7087108Y6691363D01*
X7090308Y6681508D01*
X7092264Y6671322D01*
X7092899Y6660984D01*
G37*
G36*
X6838899Y6495986D02*
G01*
X6838264Y6485648D01*
X6836308Y6475463D01*
X6833108Y6465608D01*
X6828713Y6456235D01*
X6823151Y6447497D01*
X6816547Y6439522D01*
X6809003Y6432410D01*
X6800621Y6426339D01*
X6791528Y6421335D01*
X6781901Y6417525D01*
X6771868Y6414960D01*
X6761581Y6413639D01*
X6751218Y6413639D01*
X6740956Y6414960D01*
X6730923Y6417525D01*
X6721271Y6421335D01*
X6712204Y6426339D01*
X6703822Y6432410D01*
X6696278Y6439522D01*
X6689674Y6447497D01*
X6684111Y6456235D01*
X6679691Y6465608D01*
X6676491Y6475463D01*
X6674561Y6485648D01*
X6673900Y6495986D01*
X6673900Y6660984D01*
X6674561Y6671322D01*
X6676491Y6681508D01*
X6679691Y6691363D01*
X6684111Y6700735D01*
X6689674Y6709473D01*
X6696278Y6717449D01*
X6703822Y6724561D01*
X6712204Y6730631D01*
X6721271Y6735635D01*
X6730923Y6739445D01*
X6740956Y6742036D01*
X6751218Y6743331D01*
X6761581Y6743331D01*
X6771868Y6742036D01*
X6781901Y6739445D01*
X6791528Y6735635D01*
X6800621Y6730631D01*
X6809003Y6724561D01*
X6816547Y6717449D01*
X6823151Y6709473D01*
X6828713Y6700735D01*
X6833108Y6691363D01*
X6836308Y6681508D01*
X6838264Y6671322D01*
X6838899Y6660984D01*
G37*
G36*
X6584899Y6495986D02*
G01*
X6584264Y6485648D01*
X6582308Y6475463D01*
X6579108Y6465608D01*
X6574713Y6456235D01*
X6569151Y6447497D01*
X6562547Y6439522D01*
X6555003Y6432410D01*
X6546621Y6426339D01*
X6537528Y6421335D01*
X6527901Y6417525D01*
X6517868Y6414960D01*
X6507581Y6413639D01*
X6497218Y6413639D01*
X6486956Y6414960D01*
X6476923Y6417525D01*
X6467271Y6421335D01*
X6458204Y6426339D01*
X6449822Y6432410D01*
X6442278Y6439522D01*
X6435674Y6447497D01*
X6430111Y6456235D01*
X6425691Y6465608D01*
X6422491Y6475463D01*
X6420561Y6485648D01*
X6419900Y6495986D01*
X6419900Y6660984D01*
X6420561Y6671322D01*
X6422491Y6681508D01*
X6425691Y6691363D01*
X6430111Y6700735D01*
X6435674Y6709473D01*
X6442278Y6717449D01*
X6449822Y6724561D01*
X6458204Y6730631D01*
X6467271Y6735635D01*
X6476923Y6739445D01*
X6486956Y6742036D01*
X6497218Y6743331D01*
X6507581Y6743331D01*
X6517868Y6742036D01*
X6527901Y6739445D01*
X6537528Y6735635D01*
X6546621Y6730631D01*
X6555003Y6724561D01*
X6562547Y6717449D01*
X6569151Y6709473D01*
X6574713Y6700735D01*
X6579108Y6691363D01*
X6582308Y6681508D01*
X6584264Y6671322D01*
X6584899Y6660984D01*
G37*
G36*
X6330899Y6495986D02*
G01*
X6330264Y6485648D01*
X6328308Y6475463D01*
X6325108Y6465608D01*
X6320713Y6456235D01*
X6315151Y6447497D01*
X6308547Y6439522D01*
X6301003Y6432410D01*
X6292621Y6426339D01*
X6283528Y6421335D01*
X6273901Y6417525D01*
X6263868Y6414960D01*
X6253581Y6413639D01*
X6243218Y6413639D01*
X6232956Y6414960D01*
X6222923Y6417525D01*
X6213271Y6421335D01*
X6204204Y6426339D01*
X6195822Y6432410D01*
X6188278Y6439522D01*
X6181674Y6447497D01*
X6176111Y6456235D01*
X6171691Y6465608D01*
X6168491Y6475463D01*
X6166561Y6485648D01*
X6165900Y6495986D01*
X6165900Y6660984D01*
X6166561Y6671322D01*
X6168491Y6681508D01*
X6171691Y6691363D01*
X6176111Y6700735D01*
X6181674Y6709473D01*
X6188278Y6717449D01*
X6195822Y6724561D01*
X6204204Y6730631D01*
X6213271Y6735635D01*
X6222923Y6739445D01*
X6232956Y6742036D01*
X6243218Y6743331D01*
X6253581Y6743331D01*
X6263868Y6742036D01*
X6273901Y6739445D01*
X6283528Y6735635D01*
X6292621Y6730631D01*
X6301003Y6724561D01*
X6308547Y6717449D01*
X6315151Y6709473D01*
X6320713Y6700735D01*
X6325108Y6691363D01*
X6328308Y6681508D01*
X6330264Y6671322D01*
X6330899Y6660984D01*
G37*
G36*
X6076899Y6495986D02*
G01*
X6076264Y6485648D01*
X6074308Y6475463D01*
X6071108Y6465608D01*
X6066713Y6456235D01*
X6061151Y6447497D01*
X6054547Y6439522D01*
X6047003Y6432410D01*
X6038621Y6426339D01*
X6029528Y6421335D01*
X6019901Y6417525D01*
X6009868Y6414960D01*
X5999581Y6413639D01*
X5989218Y6413639D01*
X5978956Y6414960D01*
X5968923Y6417525D01*
X5959271Y6421335D01*
X5950204Y6426339D01*
X5941822Y6432410D01*
X5934278Y6439522D01*
X5927674Y6447497D01*
X5922111Y6456235D01*
X5917691Y6465608D01*
X5914491Y6475463D01*
X5912561Y6485648D01*
X5911900Y6495986D01*
X5911900Y6660984D01*
X5912561Y6671322D01*
X5914491Y6681508D01*
X5917691Y6691363D01*
X5922111Y6700735D01*
X5927674Y6709473D01*
X5934278Y6717449D01*
X5941822Y6724561D01*
X5950204Y6730631D01*
X5959271Y6735635D01*
X5968923Y6739445D01*
X5978956Y6742036D01*
X5989218Y6743331D01*
X5999581Y6743331D01*
X6009868Y6742036D01*
X6019901Y6739445D01*
X6029528Y6735635D01*
X6038621Y6730631D01*
X6047003Y6724561D01*
X6054547Y6717449D01*
X6061151Y6709473D01*
X6066713Y6700735D01*
X6071108Y6691363D01*
X6074308Y6681508D01*
X6076264Y6671322D01*
X6076899Y6660984D01*
G37*
G36*
X5822899Y6495986D02*
G01*
X5822264Y6485648D01*
X5820308Y6475463D01*
X5817108Y6465608D01*
X5812713Y6456235D01*
X5807151Y6447497D01*
X5800547Y6439522D01*
X5793003Y6432410D01*
X5784621Y6426339D01*
X5775528Y6421335D01*
X5765901Y6417525D01*
X5755868Y6414960D01*
X5745581Y6413639D01*
X5735218Y6413639D01*
X5724956Y6414960D01*
X5714923Y6417525D01*
X5705271Y6421335D01*
X5696204Y6426339D01*
X5687822Y6432410D01*
X5680278Y6439522D01*
X5673674Y6447497D01*
X5668111Y6456235D01*
X5663691Y6465608D01*
X5660491Y6475463D01*
X5658561Y6485648D01*
X5657900Y6495986D01*
X5657900Y6660984D01*
X5658561Y6671322D01*
X5660491Y6681508D01*
X5663691Y6691363D01*
X5668111Y6700735D01*
X5673674Y6709473D01*
X5680278Y6717449D01*
X5687822Y6724561D01*
X5696204Y6730631D01*
X5705271Y6735635D01*
X5714923Y6739445D01*
X5724956Y6742036D01*
X5735218Y6743331D01*
X5745581Y6743331D01*
X5755868Y6742036D01*
X5765901Y6739445D01*
X5775528Y6735635D01*
X5784621Y6730631D01*
X5793003Y6724561D01*
X5800547Y6717449D01*
X5807151Y6709473D01*
X5812713Y6700735D01*
X5817108Y6691363D01*
X5820308Y6681508D01*
X5822264Y6671322D01*
X5822899Y6660984D01*
G37*
G36*
X5657900Y4717986D02*
G01*
X5658561Y4728324D01*
X5660491Y4738509D01*
X5663691Y4748364D01*
X5668111Y4757737D01*
X5673674Y4766475D01*
X5680278Y4774476D01*
X5687822Y4781562D01*
X5696204Y4787658D01*
X5705271Y4792637D01*
X5714923Y4796447D01*
X5724956Y4799037D01*
X5735218Y4800333D01*
X5745581Y4800333D01*
X5755868Y4799037D01*
X5765901Y4796447D01*
X5775528Y4792637D01*
X5784621Y4787658D01*
X5793003Y4781562D01*
X5800547Y4774476D01*
X5807151Y4766475D01*
X5812713Y4757737D01*
X5817108Y4748364D01*
X5820308Y4738509D01*
X5822264Y4728324D01*
X5822899Y4717986D01*
X5822899Y4552988D01*
X5822264Y4542650D01*
X5820308Y4532464D01*
X5817108Y4522609D01*
X5812713Y4513237D01*
X5807151Y4504499D01*
X5800547Y4496523D01*
X5793003Y4489411D01*
X5784621Y4483341D01*
X5775528Y4478337D01*
X5765901Y4474527D01*
X5755868Y4471962D01*
X5745581Y4470641D01*
X5735218Y4470641D01*
X5724956Y4471962D01*
X5714923Y4474527D01*
X5705271Y4478337D01*
X5696204Y4483341D01*
X5687822Y4489411D01*
X5680278Y4496523D01*
X5673674Y4504499D01*
X5668111Y4513237D01*
X5663691Y4522609D01*
X5660491Y4532464D01*
X5658561Y4542650D01*
X5657900Y4552988D01*
G37*
G36*
X5911900Y4717986D02*
G01*
X5912561Y4728324D01*
X5914491Y4738509D01*
X5917691Y4748364D01*
X5922111Y4757737D01*
X5927674Y4766475D01*
X5934278Y4774476D01*
X5941822Y4781562D01*
X5950204Y4787658D01*
X5959271Y4792637D01*
X5968923Y4796447D01*
X5978956Y4799037D01*
X5989218Y4800333D01*
X5999581Y4800333D01*
X6009868Y4799037D01*
X6019901Y4796447D01*
X6029528Y4792637D01*
X6038621Y4787658D01*
X6047003Y4781562D01*
X6054547Y4774476D01*
X6061151Y4766475D01*
X6066713Y4757737D01*
X6071108Y4748364D01*
X6074308Y4738509D01*
X6076264Y4728324D01*
X6076899Y4717986D01*
X6076899Y4552988D01*
X6076264Y4542650D01*
X6074308Y4532464D01*
X6071108Y4522609D01*
X6066713Y4513237D01*
X6061151Y4504499D01*
X6054547Y4496523D01*
X6047003Y4489411D01*
X6038621Y4483341D01*
X6029528Y4478337D01*
X6019901Y4474527D01*
X6009868Y4471962D01*
X5999581Y4470641D01*
X5989218Y4470641D01*
X5978956Y4471962D01*
X5968923Y4474527D01*
X5959271Y4478337D01*
X5950204Y4483341D01*
X5941822Y4489411D01*
X5934278Y4496523D01*
X5927674Y4504499D01*
X5922111Y4513237D01*
X5917691Y4522609D01*
X5914491Y4532464D01*
X5912561Y4542650D01*
X5911900Y4552988D01*
G37*
G36*
X6165900Y4717986D02*
G01*
X6166561Y4728324D01*
X6168491Y4738509D01*
X6171691Y4748364D01*
X6176111Y4757737D01*
X6181674Y4766475D01*
X6188278Y4774476D01*
X6195822Y4781562D01*
X6204204Y4787658D01*
X6213271Y4792637D01*
X6222923Y4796447D01*
X6232956Y4799037D01*
X6243218Y4800333D01*
X6253581Y4800333D01*
X6263868Y4799037D01*
X6273901Y4796447D01*
X6283528Y4792637D01*
X6292621Y4787658D01*
X6301003Y4781562D01*
X6308547Y4774476D01*
X6315151Y4766475D01*
X6320713Y4757737D01*
X6325108Y4748364D01*
X6328308Y4738509D01*
X6330264Y4728324D01*
X6330899Y4717986D01*
X6330899Y4552988D01*
X6330264Y4542650D01*
X6328308Y4532464D01*
X6325108Y4522609D01*
X6320713Y4513237D01*
X6315151Y4504499D01*
X6308547Y4496523D01*
X6301003Y4489411D01*
X6292621Y4483341D01*
X6283528Y4478337D01*
X6273901Y4474527D01*
X6263868Y4471962D01*
X6253581Y4470641D01*
X6243218Y4470641D01*
X6232956Y4471962D01*
X6222923Y4474527D01*
X6213271Y4478337D01*
X6204204Y4483341D01*
X6195822Y4489411D01*
X6188278Y4496523D01*
X6181674Y4504499D01*
X6176111Y4513237D01*
X6171691Y4522609D01*
X6168491Y4532464D01*
X6166561Y4542650D01*
X6165900Y4552988D01*
G37*
G36*
X6419900Y4717986D02*
G01*
X6420561Y4728324D01*
X6422491Y4738509D01*
X6425691Y4748364D01*
X6430111Y4757737D01*
X6435674Y4766475D01*
X6442278Y4774476D01*
X6449822Y4781562D01*
X6458204Y4787658D01*
X6467271Y4792637D01*
X6476923Y4796447D01*
X6486956Y4799037D01*
X6497218Y4800333D01*
X6507581Y4800333D01*
X6517868Y4799037D01*
X6527901Y4796447D01*
X6537528Y4792637D01*
X6546621Y4787658D01*
X6555003Y4781562D01*
X6562547Y4774476D01*
X6569151Y4766475D01*
X6574713Y4757737D01*
X6579108Y4748364D01*
X6582308Y4738509D01*
X6584264Y4728324D01*
X6584899Y4717986D01*
X6584899Y4552988D01*
X6584264Y4542650D01*
X6582308Y4532464D01*
X6579108Y4522609D01*
X6574713Y4513237D01*
X6569151Y4504499D01*
X6562547Y4496523D01*
X6555003Y4489411D01*
X6546621Y4483341D01*
X6537528Y4478337D01*
X6527901Y4474527D01*
X6517868Y4471962D01*
X6507581Y4470641D01*
X6497218Y4470641D01*
X6486956Y4471962D01*
X6476923Y4474527D01*
X6467271Y4478337D01*
X6458204Y4483341D01*
X6449822Y4489411D01*
X6442278Y4496523D01*
X6435674Y4504499D01*
X6430111Y4513237D01*
X6425691Y4522609D01*
X6422491Y4532464D01*
X6420561Y4542650D01*
X6419900Y4552988D01*
G37*
G36*
X6673900Y4717986D02*
G01*
X6674561Y4728324D01*
X6676491Y4738509D01*
X6679691Y4748364D01*
X6684111Y4757737D01*
X6689674Y4766475D01*
X6696278Y4774476D01*
X6703822Y4781562D01*
X6712204Y4787658D01*
X6721271Y4792637D01*
X6730923Y4796447D01*
X6740956Y4799037D01*
X6751218Y4800333D01*
X6761581Y4800333D01*
X6771868Y4799037D01*
X6781901Y4796447D01*
X6791528Y4792637D01*
X6800621Y4787658D01*
X6809003Y4781562D01*
X6816547Y4774476D01*
X6823151Y4766475D01*
X6828713Y4757737D01*
X6833108Y4748364D01*
X6836308Y4738509D01*
X6838264Y4728324D01*
X6838899Y4717986D01*
X6838899Y4552988D01*
X6838264Y4542650D01*
X6836308Y4532464D01*
X6833108Y4522609D01*
X6828713Y4513237D01*
X6823151Y4504499D01*
X6816547Y4496523D01*
X6809003Y4489411D01*
X6800621Y4483341D01*
X6791528Y4478337D01*
X6781901Y4474527D01*
X6771868Y4471962D01*
X6761581Y4470641D01*
X6751218Y4470641D01*
X6740956Y4471962D01*
X6730923Y4474527D01*
X6721271Y4478337D01*
X6712204Y4483341D01*
X6703822Y4489411D01*
X6696278Y4496523D01*
X6689674Y4504499D01*
X6684111Y4513237D01*
X6679691Y4522609D01*
X6676491Y4532464D01*
X6674561Y4542650D01*
X6673900Y4552988D01*
G37*
G36*
X6927900Y4717986D02*
G01*
X6928561Y4728324D01*
X6930491Y4738509D01*
X6933691Y4748364D01*
X6938111Y4757737D01*
X6943674Y4766475D01*
X6950278Y4774476D01*
X6957822Y4781562D01*
X6966204Y4787658D01*
X6975271Y4792637D01*
X6984923Y4796447D01*
X6994956Y4799037D01*
X7005218Y4800333D01*
X7015581Y4800333D01*
X7025868Y4799037D01*
X7035901Y4796447D01*
X7045528Y4792637D01*
X7054621Y4787658D01*
X7063003Y4781562D01*
X7070547Y4774476D01*
X7077151Y4766475D01*
X7082713Y4757737D01*
X7087108Y4748364D01*
X7090308Y4738509D01*
X7092264Y4728324D01*
X7092899Y4717986D01*
X7092899Y4552988D01*
X7092264Y4542650D01*
X7090308Y4532464D01*
X7087108Y4522609D01*
X7082713Y4513237D01*
X7077151Y4504499D01*
X7070547Y4496523D01*
X7063003Y4489411D01*
X7054621Y4483341D01*
X7045528Y4478337D01*
X7035901Y4474527D01*
X7025868Y4471962D01*
X7015581Y4470641D01*
X7005218Y4470641D01*
X6994956Y4471962D01*
X6984923Y4474527D01*
X6975271Y4478337D01*
X6966204Y4483341D01*
X6957822Y4489411D01*
X6950278Y4496523D01*
X6943674Y4504499D01*
X6938111Y4513237D01*
X6933691Y4522609D01*
X6930491Y4532464D01*
X6928561Y4542650D01*
X6927900Y4552988D01*
G37*
G36*
X7181900Y4717986D02*
G01*
X7182561Y4728324D01*
X7184491Y4738509D01*
X7187691Y4748364D01*
X7192111Y4757737D01*
X7197674Y4766475D01*
X7204278Y4774476D01*
X7211822Y4781562D01*
X7220204Y4787658D01*
X7229271Y4792637D01*
X7238923Y4796447D01*
X7248956Y4799037D01*
X7259218Y4800333D01*
X7269581Y4800333D01*
X7279868Y4799037D01*
X7289901Y4796447D01*
X7299528Y4792637D01*
X7308621Y4787658D01*
X7317003Y4781562D01*
X7324547Y4774476D01*
X7331151Y4766475D01*
X7336713Y4757737D01*
X7341108Y4748364D01*
X7344308Y4738509D01*
X7346264Y4728324D01*
X7346899Y4717986D01*
X7346899Y4552988D01*
X7346264Y4542650D01*
X7344308Y4532464D01*
X7341108Y4522609D01*
X7336713Y4513237D01*
X7331151Y4504499D01*
X7324547Y4496523D01*
X7317003Y4489411D01*
X7308621Y4483341D01*
X7299528Y4478337D01*
X7289901Y4474527D01*
X7279868Y4471962D01*
X7269581Y4470641D01*
X7259218Y4470641D01*
X7248956Y4471962D01*
X7238923Y4474527D01*
X7229271Y4478337D01*
X7220204Y4483341D01*
X7211822Y4489411D01*
X7204278Y4496523D01*
X7197674Y4504499D01*
X7192111Y4513237D01*
X7187691Y4522609D01*
X7184491Y4532464D01*
X7182561Y4542650D01*
X7181900Y4552988D01*
G37*
G36*
X7435900Y4717986D02*
G01*
X7436561Y4728324D01*
X7438491Y4738509D01*
X7441691Y4748364D01*
X7446111Y4757737D01*
X7451674Y4766475D01*
X7458278Y4774476D01*
X7465822Y4781562D01*
X7474204Y4787658D01*
X7483271Y4792637D01*
X7492923Y4796447D01*
X7502956Y4799037D01*
X7513218Y4800333D01*
X7523581Y4800333D01*
X7533868Y4799037D01*
X7543901Y4796447D01*
X7553528Y4792637D01*
X7562621Y4787658D01*
X7571003Y4781562D01*
X7578547Y4774476D01*
X7585151Y4766475D01*
X7590713Y4757737D01*
X7595108Y4748364D01*
X7598308Y4738509D01*
X7600264Y4728324D01*
X7600899Y4717986D01*
X7600899Y4552988D01*
X7600264Y4542650D01*
X7598308Y4532464D01*
X7595108Y4522609D01*
X7590713Y4513237D01*
X7585151Y4504499D01*
X7578547Y4496523D01*
X7571003Y4489411D01*
X7562621Y4483341D01*
X7553528Y4478337D01*
X7543901Y4474527D01*
X7533868Y4471962D01*
X7523581Y4470641D01*
X7513218Y4470641D01*
X7502956Y4471962D01*
X7492923Y4474527D01*
X7483271Y4478337D01*
X7474204Y4483341D01*
X7465822Y4489411D01*
X7458278Y4496523D01*
X7451674Y4504499D01*
X7446111Y4513237D01*
X7441691Y4522609D01*
X7438491Y4532464D01*
X7436561Y4542650D01*
X7435900Y4552988D01*
G37*
G36*
X7689900Y4717986D02*
G01*
X7690561Y4728324D01*
X7692491Y4738509D01*
X7695691Y4748364D01*
X7700111Y4757737D01*
X7705674Y4766475D01*
X7712278Y4774476D01*
X7719822Y4781562D01*
X7728204Y4787658D01*
X7737271Y4792637D01*
X7746923Y4796447D01*
X7756956Y4799037D01*
X7767218Y4800333D01*
X7777581Y4800333D01*
X7787868Y4799037D01*
X7797901Y4796447D01*
X7807528Y4792637D01*
X7816621Y4787658D01*
X7825003Y4781562D01*
X7832547Y4774476D01*
X7839151Y4766475D01*
X7844688Y4757737D01*
X7849108Y4748364D01*
X7852308Y4738509D01*
X7854264Y4728324D01*
X7854899Y4717986D01*
X7854899Y4552988D01*
X7854264Y4542650D01*
X7852308Y4532464D01*
X7849108Y4522609D01*
X7844688Y4513237D01*
X7839151Y4504499D01*
X7832547Y4496523D01*
X7825003Y4489411D01*
X7816621Y4483341D01*
X7807528Y4478337D01*
X7797901Y4474527D01*
X7787868Y4471962D01*
X7777581Y4470641D01*
X7767218Y4470641D01*
X7756956Y4471962D01*
X7746923Y4474527D01*
X7737271Y4478337D01*
X7728204Y4483341D01*
X7719822Y4489411D01*
X7712278Y4496523D01*
X7705674Y4504499D01*
X7700111Y4513237D01*
X7695691Y4522609D01*
X7692491Y4532464D01*
X7690561Y4542650D01*
X7689900Y4552988D01*
G37*
G36*
X7943900Y4717986D02*
G01*
X7944561Y4728324D01*
X7946491Y4738509D01*
X7949691Y4748364D01*
X7954111Y4757737D01*
X7959648Y4766475D01*
X7966252Y4774476D01*
X7973822Y4781562D01*
X7982204Y4787658D01*
X7991271Y4792637D01*
X8000923Y4796447D01*
X8010956Y4799037D01*
X8021218Y4800333D01*
X8031581Y4800333D01*
X8041868Y4799037D01*
X8051901Y4796447D01*
X8061528Y4792637D01*
X8070621Y4787658D01*
X8079003Y4781562D01*
X8086547Y4774476D01*
X8093151Y4766475D01*
X8098688Y4757737D01*
X8103108Y4748364D01*
X8106308Y4738509D01*
X8108264Y4728324D01*
X8108899Y4717986D01*
X8108899Y4552988D01*
X8108264Y4542650D01*
X8106308Y4532464D01*
X8103108Y4522609D01*
X8098688Y4513237D01*
X8093151Y4504499D01*
X8086547Y4496523D01*
X8079003Y4489411D01*
X8070621Y4483341D01*
X8061528Y4478337D01*
X8051901Y4474527D01*
X8041868Y4471962D01*
X8031581Y4470641D01*
X8021218Y4470641D01*
X8010956Y4471962D01*
X8000923Y4474527D01*
X7991271Y4478337D01*
X7982204Y4483341D01*
X7973822Y4489411D01*
X7966252Y4496523D01*
X7959648Y4504499D01*
X7954111Y4513237D01*
X7949691Y4522609D01*
X7946491Y4532464D01*
X7944561Y4542650D01*
X7943900Y4552988D01*
G37*
G36*
X8197900Y4717986D02*
G01*
X8198561Y4728324D01*
X8200491Y4738509D01*
X8203691Y4748364D01*
X8208111Y4757737D01*
X8213648Y4766475D01*
X8220252Y4774476D01*
X8227822Y4781562D01*
X8236204Y4787658D01*
X8245271Y4792637D01*
X8254898Y4796447D01*
X8264956Y4799037D01*
X8275218Y4800333D01*
X8285581Y4800333D01*
X8295868Y4799037D01*
X8305901Y4796447D01*
X8315528Y4792637D01*
X8324621Y4787658D01*
X8333003Y4781562D01*
X8340547Y4774476D01*
X8347151Y4766475D01*
X8352688Y4757737D01*
X8357108Y4748364D01*
X8360308Y4738509D01*
X8362264Y4728324D01*
X8362899Y4717986D01*
X8362899Y4552988D01*
X8362264Y4542650D01*
X8360308Y4532464D01*
X8357108Y4522609D01*
X8352688Y4513237D01*
X8347151Y4504499D01*
X8340547Y4496523D01*
X8333003Y4489411D01*
X8324621Y4483341D01*
X8315528Y4478337D01*
X8305901Y4474527D01*
X8295868Y4471962D01*
X8285581Y4470641D01*
X8275218Y4470641D01*
X8264956Y4471962D01*
X8254898Y4474527D01*
X8245271Y4478337D01*
X8236204Y4483341D01*
X8227822Y4489411D01*
X8220252Y4496523D01*
X8213648Y4504499D01*
X8208111Y4513237D01*
X8203691Y4522609D01*
X8200491Y4532464D01*
X8198561Y4542650D01*
X8197900Y4552988D01*
G37*
G36*
X8451900Y4717986D02*
G01*
X8452561Y4728324D01*
X8454491Y4738509D01*
X8457691Y4748364D01*
X8462111Y4757737D01*
X8467648Y4766475D01*
X8474252Y4774476D01*
X8481822Y4781562D01*
X8490204Y4787658D01*
X8499271Y4792637D01*
X8508898Y4796447D01*
X8518956Y4799037D01*
X8529218Y4800333D01*
X8539581Y4800333D01*
X8549868Y4799037D01*
X8559901Y4796447D01*
X8569528Y4792637D01*
X8578621Y4787658D01*
X8587003Y4781562D01*
X8594547Y4774476D01*
X8601151Y4766475D01*
X8606688Y4757737D01*
X8611108Y4748364D01*
X8614308Y4738509D01*
X8616264Y4728324D01*
X8616899Y4717986D01*
X8616899Y4552988D01*
X8616264Y4542650D01*
X8614308Y4532464D01*
X8611108Y4522609D01*
X8606688Y4513237D01*
X8601151Y4504499D01*
X8594547Y4496523D01*
X8587003Y4489411D01*
X8578621Y4483341D01*
X8569528Y4478337D01*
X8559901Y4474527D01*
X8549868Y4471962D01*
X8539581Y4470641D01*
X8529218Y4470641D01*
X8518956Y4471962D01*
X8508898Y4474527D01*
X8499271Y4478337D01*
X8490204Y4483341D01*
X8481822Y4489411D01*
X8474252Y4496523D01*
X8467648Y4504499D01*
X8462111Y4513237D01*
X8457691Y4522609D01*
X8454491Y4532464D01*
X8452561Y4542650D01*
X8451900Y4552988D01*
G37*
G36*
X8705900Y4717986D02*
G01*
X8706561Y4728324D01*
X8708491Y4738509D01*
X8711691Y4748364D01*
X8716111Y4757737D01*
X8721648Y4766475D01*
X8728252Y4774476D01*
X8735822Y4781562D01*
X8744204Y4787658D01*
X8753271Y4792637D01*
X8762898Y4796447D01*
X8772956Y4799037D01*
X8783218Y4800333D01*
X8793581Y4800333D01*
X8803868Y4799037D01*
X8813901Y4796447D01*
X8823528Y4792637D01*
X8832621Y4787658D01*
X8841003Y4781562D01*
X8848547Y4774476D01*
X8855151Y4766475D01*
X8860688Y4757737D01*
X8865108Y4748364D01*
X8868308Y4738509D01*
X8870264Y4728324D01*
X8870899Y4717986D01*
X8870899Y4552988D01*
X8870264Y4542650D01*
X8868308Y4532464D01*
X8865108Y4522609D01*
X8860688Y4513237D01*
X8855151Y4504499D01*
X8848547Y4496523D01*
X8841003Y4489411D01*
X8832621Y4483341D01*
X8823528Y4478337D01*
X8813901Y4474527D01*
X8803868Y4471962D01*
X8793581Y4470641D01*
X8783218Y4470641D01*
X8772956Y4471962D01*
X8762898Y4474527D01*
X8753271Y4478337D01*
X8744204Y4483341D01*
X8735822Y4489411D01*
X8728252Y4496523D01*
X8721648Y4504499D01*
X8716111Y4513237D01*
X8711691Y4522609D01*
X8708491Y4532464D01*
X8706561Y4542650D01*
X8705900Y4552988D01*
G37*
G36*
X8959900Y4717986D02*
G01*
X8960561Y4728324D01*
X8962491Y4738509D01*
X8965691Y4748364D01*
X8970111Y4757737D01*
X8975648Y4766475D01*
X8982252Y4774476D01*
X8989822Y4781562D01*
X8998204Y4787658D01*
X9007271Y4792637D01*
X9016898Y4796447D01*
X9026956Y4799037D01*
X9037218Y4800333D01*
X9047581Y4800333D01*
X9057868Y4799037D01*
X9067901Y4796447D01*
X9077528Y4792637D01*
X9086595Y4787658D01*
X9094977Y4781562D01*
X9102547Y4774476D01*
X9109151Y4766475D01*
X9114688Y4757737D01*
X9119108Y4748364D01*
X9122308Y4738509D01*
X9124264Y4728324D01*
X9124899Y4717986D01*
X9124899Y4552988D01*
X9124264Y4542650D01*
X9122308Y4532464D01*
X9119108Y4522609D01*
X9114688Y4513237D01*
X9109151Y4504499D01*
X9102547Y4496523D01*
X9094977Y4489411D01*
X9086595Y4483341D01*
X9077528Y4478337D01*
X9067901Y4474527D01*
X9057868Y4471962D01*
X9047581Y4470641D01*
X9037218Y4470641D01*
X9026956Y4471962D01*
X9016898Y4474527D01*
X9007271Y4478337D01*
X8998204Y4483341D01*
X8989822Y4489411D01*
X8982252Y4496523D01*
X8975648Y4504499D01*
X8970111Y4513237D01*
X8965691Y4522609D01*
X8962491Y4532464D01*
X8960561Y4542650D01*
X8959900Y4552988D01*
G37*
G36*
X9213900Y4717986D02*
G01*
X9214561Y4728324D01*
X9216491Y4738509D01*
X9219691Y4748364D01*
X9224111Y4757737D01*
X9229648Y4766475D01*
X9236252Y4774476D01*
X9243822Y4781562D01*
X9252204Y4787658D01*
X9261271Y4792637D01*
X9270898Y4796447D01*
X9280931Y4799037D01*
X9291218Y4800333D01*
X9301581Y4800333D01*
X9311868Y4799037D01*
X9321901Y4796447D01*
X9331528Y4792637D01*
X9340595Y4787658D01*
X9348977Y4781562D01*
X9356547Y4774476D01*
X9363151Y4766475D01*
X9368688Y4757737D01*
X9373108Y4748364D01*
X9376308Y4738509D01*
X9378264Y4728324D01*
X9378899Y4717986D01*
X9378899Y4552988D01*
X9378264Y4542650D01*
X9376308Y4532464D01*
X9373108Y4522609D01*
X9368688Y4513237D01*
X9363151Y4504499D01*
X9356547Y4496523D01*
X9348977Y4489411D01*
X9340595Y4483341D01*
X9331528Y4478337D01*
X9321901Y4474527D01*
X9311868Y4471962D01*
X9301581Y4470641D01*
X9291218Y4470641D01*
X9280931Y4471962D01*
X9270898Y4474527D01*
X9261271Y4478337D01*
X9252204Y4483341D01*
X9243822Y4489411D01*
X9236252Y4496523D01*
X9229648Y4504499D01*
X9224111Y4513237D01*
X9219691Y4522609D01*
X9216491Y4532464D01*
X9214561Y4542650D01*
X9213900Y4552988D01*
G37*
G36*
X9467900Y4717986D02*
G01*
X9468561Y4728324D01*
X9470491Y4738509D01*
X9473691Y4748364D01*
X9478111Y4757737D01*
X9483648Y4766475D01*
X9490252Y4774476D01*
X9497822Y4781562D01*
X9506204Y4787658D01*
X9515271Y4792637D01*
X9524898Y4796447D01*
X9534931Y4799037D01*
X9545218Y4800333D01*
X9555581Y4800333D01*
X9565868Y4799037D01*
X9575901Y4796447D01*
X9585528Y4792637D01*
X9594595Y4787658D01*
X9602977Y4781562D01*
X9610547Y4774476D01*
X9617151Y4766475D01*
X9622688Y4757737D01*
X9627108Y4748364D01*
X9630308Y4738509D01*
X9632238Y4728324D01*
X9632899Y4717986D01*
X9632899Y4552988D01*
X9632238Y4542650D01*
X9630308Y4532464D01*
X9627108Y4522609D01*
X9622688Y4513237D01*
X9617151Y4504499D01*
X9610547Y4496523D01*
X9602977Y4489411D01*
X9594595Y4483341D01*
X9585528Y4478337D01*
X9575901Y4474527D01*
X9565868Y4471962D01*
X9555581Y4470641D01*
X9545218Y4470641D01*
X9534931Y4471962D01*
X9524898Y4474527D01*
X9515271Y4478337D01*
X9506204Y4483341D01*
X9497822Y4489411D01*
X9490252Y4496523D01*
X9483648Y4504499D01*
X9478111Y4513237D01*
X9473691Y4522609D01*
X9470491Y4532464D01*
X9468561Y4542650D01*
X9467900Y4552988D01*
G37*
G36*
X9721900Y4717986D02*
G01*
X9722561Y4728324D01*
X9724491Y4738509D01*
X9727691Y4748364D01*
X9732111Y4757737D01*
X9737648Y4766475D01*
X9744252Y4774476D01*
X9751822Y4781562D01*
X9760204Y4787658D01*
X9769271Y4792637D01*
X9778898Y4796447D01*
X9788931Y4799037D01*
X9799218Y4800333D01*
X9809581Y4800333D01*
X9819868Y4799037D01*
X9829901Y4796447D01*
X9839528Y4792637D01*
X9848595Y4787658D01*
X9856977Y4781562D01*
X9864547Y4774476D01*
X9871151Y4766475D01*
X9876688Y4757737D01*
X9881108Y4748364D01*
X9884308Y4738509D01*
X9886238Y4728324D01*
X9886899Y4717986D01*
X9886899Y4552988D01*
X9886238Y4542650D01*
X9884308Y4532464D01*
X9881108Y4522609D01*
X9876688Y4513237D01*
X9871151Y4504499D01*
X9864547Y4496523D01*
X9856977Y4489411D01*
X9848595Y4483341D01*
X9839528Y4478337D01*
X9829901Y4474527D01*
X9819868Y4471962D01*
X9809581Y4470641D01*
X9799218Y4470641D01*
X9788931Y4471962D01*
X9778898Y4474527D01*
X9769271Y4478337D01*
X9760204Y4483341D01*
X9751822Y4489411D01*
X9744252Y4496523D01*
X9737648Y4504499D01*
X9732111Y4513237D01*
X9727691Y4522609D01*
X9724491Y4532464D01*
X9722561Y4542650D01*
X9721900Y4552988D01*
G37*
G36*
X9975900Y4717986D02*
G01*
X9976561Y4728324D01*
X9978491Y4738509D01*
X9981691Y4748364D01*
X9986111Y4757737D01*
X9991648Y4766475D01*
X9998252Y4774476D01*
X10005822Y4781562D01*
X10014204Y4787658D01*
X10023271Y4792637D01*
X10032898Y4796447D01*
X10042931Y4799037D01*
X10053218Y4800333D01*
X10063581Y4800333D01*
X10073868Y4799037D01*
X10083901Y4796447D01*
X10093528Y4792637D01*
X10102595Y4787658D01*
X10110977Y4781562D01*
X10118547Y4774476D01*
X10125151Y4766475D01*
X10130688Y4757737D01*
X10135108Y4748364D01*
X10138308Y4738509D01*
X10140238Y4728324D01*
X10140899Y4717986D01*
X10140899Y4552988D01*
X10140238Y4542650D01*
X10138308Y4532464D01*
X10135108Y4522609D01*
X10130688Y4513237D01*
X10125151Y4504499D01*
X10118547Y4496523D01*
X10110977Y4489411D01*
X10102595Y4483341D01*
X10093528Y4478337D01*
X10083901Y4474527D01*
X10073868Y4471962D01*
X10063581Y4470641D01*
X10053218Y4470641D01*
X10042931Y4471962D01*
X10032898Y4474527D01*
X10023271Y4478337D01*
X10014204Y4483341D01*
X10005822Y4489411D01*
X9998252Y4496523D01*
X9991648Y4504499D01*
X9986111Y4513237D01*
X9981691Y4522609D01*
X9978491Y4532464D01*
X9976561Y4542650D01*
X9975900Y4552988D01*
G37*
G36*
X10229900Y4717986D02*
G01*
X10230561Y4728324D01*
X10232491Y4738509D01*
X10235691Y4748364D01*
X10240111Y4757737D01*
X10245648Y4766475D01*
X10252252Y4774476D01*
X10259822Y4781562D01*
X10268204Y4787658D01*
X10277271Y4792637D01*
X10286898Y4796447D01*
X10296931Y4799037D01*
X10307218Y4800333D01*
X10317581Y4800333D01*
X10327868Y4799037D01*
X10337901Y4796447D01*
X10347528Y4792637D01*
X10356595Y4787658D01*
X10364977Y4781562D01*
X10372547Y4774476D01*
X10379151Y4766475D01*
X10384688Y4757737D01*
X10389108Y4748364D01*
X10392308Y4738509D01*
X10394238Y4728324D01*
X10394899Y4717986D01*
X10394899Y4552988D01*
X10394238Y4542650D01*
X10392308Y4532464D01*
X10389108Y4522609D01*
X10384688Y4513237D01*
X10379151Y4504499D01*
X10372547Y4496523D01*
X10364977Y4489411D01*
X10356595Y4483341D01*
X10347528Y4478337D01*
X10337901Y4474527D01*
X10327868Y4471962D01*
X10317581Y4470641D01*
X10307218Y4470641D01*
X10296931Y4471962D01*
X10286898Y4474527D01*
X10277271Y4478337D01*
X10268204Y4483341D01*
X10259822Y4489411D01*
X10252252Y4496523D01*
X10245648Y4504499D01*
X10240111Y4513237D01*
X10235691Y4522609D01*
X10232491Y4532464D01*
X10230561Y4542650D01*
X10229900Y4552988D01*
G37*
G36*
X10483900Y4717986D02*
G01*
X10484561Y4728324D01*
X10486491Y4738509D01*
X10489691Y4748364D01*
X10494111Y4757737D01*
X10499648Y4766475D01*
X10506252Y4774476D01*
X10513822Y4781562D01*
X10522204Y4787658D01*
X10531271Y4792637D01*
X10540898Y4796447D01*
X10550931Y4799037D01*
X10561218Y4800333D01*
X10571581Y4800333D01*
X10581868Y4799037D01*
X10591901Y4796447D01*
X10601528Y4792637D01*
X10610595Y4787658D01*
X10618977Y4781562D01*
X10626547Y4774476D01*
X10633151Y4766475D01*
X10638688Y4757737D01*
X10643108Y4748364D01*
X10646308Y4738509D01*
X10648238Y4728324D01*
X10648899Y4717986D01*
X10648899Y4552988D01*
X10648238Y4542650D01*
X10646308Y4532464D01*
X10643108Y4522609D01*
X10638688Y4513237D01*
X10633151Y4504499D01*
X10626547Y4496523D01*
X10618977Y4489411D01*
X10610595Y4483341D01*
X10601528Y4478337D01*
X10591901Y4474527D01*
X10581868Y4471962D01*
X10571581Y4470641D01*
X10561218Y4470641D01*
X10550931Y4471962D01*
X10540898Y4474527D01*
X10531271Y4478337D01*
X10522204Y4483341D01*
X10513822Y4489411D01*
X10506252Y4496523D01*
X10499648Y4504499D01*
X10494111Y4513237D01*
X10489691Y4522609D01*
X10486491Y4532464D01*
X10484561Y4542650D01*
X10483900Y4552988D01*
G37*
D12*
G01*
X317500Y5245100D03*
G01*
X317500Y4737100D03*
G01*
X1056894Y7454900D03*
G01*
X1406905Y7454900D03*
G01*
X1282700Y4644186D03*
G01*
X1282700Y4144187D03*
G01*
X1282700Y4969687D03*
G01*
X1282700Y5469686D03*
G01*
X1896313Y7442200D03*
G01*
X2396286Y7442200D03*
D13*
G01*
X3334308Y5029200D03*
G01*
X1974291Y5029200D03*
D14*
G01*
X299212Y4069003D03*
G01*
X45212Y4069003D03*
D15*
G01*
X-208787Y4069003D03*
D14*
G01*
X299212Y3748989D03*
G01*
X45212Y3748989D03*
D15*
G01*
X-208787Y3748989D03*
D14*
G01*
X299212Y3429000D03*
G01*
X45212Y3429000D03*
D15*
G01*
X-208787Y3429000D03*
D14*
G01*
X3299206Y4069003D03*
G01*
X3045206Y4069003D03*
D15*
G01*
X2791206Y4069003D03*
D14*
G01*
X3299206Y3748989D03*
G01*
X3045206Y3748989D03*
D15*
G01*
X2791206Y3748989D03*
D14*
G01*
X3299206Y3429000D03*
G01*
X3045206Y3429000D03*
D15*
G01*
X2791206Y3429000D03*
D14*
G01*
X6299200Y4069003D03*
G01*
X6045200Y4069003D03*
D15*
G01*
X5791200Y4069003D03*
D14*
G01*
X6299200Y3748989D03*
G01*
X6045200Y3748989D03*
D15*
G01*
X5791200Y3748989D03*
D14*
G01*
X6299200Y3429000D03*
G01*
X6045200Y3429000D03*
D15*
G01*
X5791200Y3429000D03*
D14*
G01*
X299212Y7790103D03*
G01*
X45212Y7790103D03*
D15*
G01*
X-208787Y7790103D03*
D14*
G01*
X299212Y7470089D03*
G01*
X45212Y7470089D03*
D15*
G01*
X-208787Y7470089D03*
D14*
G01*
X299212Y7150100D03*
G01*
X45212Y7150100D03*
D15*
G01*
X-208787Y7150100D03*
D14*
G01*
X3299206Y7790103D03*
G01*
X3045206Y7790103D03*
D15*
G01*
X2791206Y7790103D03*
D14*
G01*
X3299206Y7470089D03*
G01*
X3045206Y7470089D03*
D15*
G01*
X2791206Y7470089D03*
D14*
G01*
X3299206Y7150100D03*
G01*
X3045206Y7150100D03*
D15*
G01*
X2791206Y7150100D03*
D14*
G01*
X6299200Y7790103D03*
G01*
X6045200Y7790103D03*
D15*
G01*
X5791200Y7790103D03*
D14*
G01*
X6299200Y7470089D03*
G01*
X6045200Y7470089D03*
D15*
G01*
X5791200Y7470089D03*
D14*
G01*
X6299200Y7150100D03*
G01*
X6045200Y7150100D03*
D15*
G01*
X5791200Y7150100D03*
D16*
G01*
X7429500Y7505700D03*
G01*
X7175500Y7505700D03*
D17*
G01*
X1655292Y3746500D03*
G01*
X605307Y3746500D03*
D12*
G01*
X2006600Y3577081D03*
G01*
X2006600Y4627092D03*
D18*
G01*
X8902700Y7505700D03*
G01*
X7886700Y7505700D03*
D19*
G01*
X-736600Y6017005D03*
D20*
G01*
X-736600Y5666994D03*
D21*
G01*
X8321700Y3873500D03*
G01*
X7451699Y3873500D03*
D22*
G01*
X9906000Y7251700D03*
G01*
X9906000Y3962400D03*
G01*
X-635000Y4826000D03*
D23*
G01*
X4917820Y6235700D03*
G01*
X4872050Y6388100D03*
G01*
X7192492Y4069003D03*
G01*
X5572252Y5495137D03*
G01*
X4008323Y6780276D03*
G01*
X5431866Y5446598D03*
G01*
X4187139Y6528333D03*
D24*
G01*
X520700Y6553200D03*
M02*
