G04 Layer: TopSilkscreenLayer*
G04 EasyEDA v6.5.23, 2023-09-19 16:20:23*
G04 fec3ef732f994282af85564de1ff210d,c045908398b64bc89dde678931a0b1f3,10*
G04 Gerber Generator version 0.2*
G04 Scale: 100 percent, Rotated: No, Reflected: No *
G04 Dimensions in millimeters *
G04 leading zeros omitted , absolute positions ,4 integer and 5 decimal *
%FSLAX45Y45*%
%MOMM*%

%ADD10C,0.2032*%
%ADD11C,0.1016*%
%ADD12C,0.1524*%
%ADD13C,0.1270*%
%ADD14C,0.2540*%
%ADD15C,0.2030*%
%ADD16C,0.3810*%
%ADD17C,0.0152*%

%LPD*%
D10*
X3911600Y7964678D02*
G01*
X3911600Y7770876D01*
X4040886Y7964678D02*
G01*
X4040886Y7770876D01*
X3911600Y7872476D02*
G01*
X4040886Y7872476D01*
X4101845Y7964678D02*
G01*
X4101845Y7770876D01*
X4101845Y7964678D02*
G01*
X4221988Y7964678D01*
X4101845Y7872476D02*
G01*
X4175759Y7872476D01*
X4101845Y7770876D02*
G01*
X4221988Y7770876D01*
X4282947Y7964678D02*
G01*
X4412234Y7770876D01*
X4412234Y7964678D02*
G01*
X4282947Y7770876D01*
X4547108Y7964678D02*
G01*
X4473193Y7770876D01*
X4547108Y7964678D02*
G01*
X4621022Y7770876D01*
X4500879Y7835392D02*
G01*
X4593336Y7835392D01*
X4681981Y7964678D02*
G01*
X4681981Y7770876D01*
X4681981Y7964678D02*
G01*
X4765040Y7964678D01*
X4792725Y7955534D01*
X4801870Y7946389D01*
X4811268Y7927847D01*
X4811268Y7900162D01*
X4801870Y7881620D01*
X4792725Y7872476D01*
X4765040Y7863078D01*
X4681981Y7863078D01*
X4927600Y7964678D02*
G01*
X4909058Y7955534D01*
X4890770Y7936992D01*
X4881372Y7918450D01*
X4872227Y7890763D01*
X4872227Y7844789D01*
X4881372Y7816850D01*
X4890770Y7798562D01*
X4909058Y7780020D01*
X4927600Y7770876D01*
X4964429Y7770876D01*
X4982972Y7780020D01*
X5001513Y7798562D01*
X5010658Y7816850D01*
X5020056Y7844789D01*
X5020056Y7890763D01*
X5010658Y7918450D01*
X5001513Y7936992D01*
X4982972Y7955534D01*
X4964429Y7964678D01*
X4927600Y7964678D01*
X5081015Y7964678D02*
G01*
X5081015Y7770876D01*
X5081015Y7964678D02*
G01*
X5145531Y7964678D01*
X5173218Y7955534D01*
X5191759Y7936992D01*
X5200904Y7918450D01*
X5210302Y7890763D01*
X5210302Y7844789D01*
X5200904Y7816850D01*
X5191759Y7798562D01*
X5173218Y7780020D01*
X5145531Y7770876D01*
X5081015Y7770876D01*
X3911600Y7659878D02*
G01*
X3911600Y7466076D01*
X3911600Y7659878D02*
G01*
X3985513Y7466076D01*
X4059427Y7659878D02*
G01*
X3985513Y7466076D01*
X4059427Y7659878D02*
G01*
X4059427Y7466076D01*
X4194302Y7659878D02*
G01*
X4120388Y7466076D01*
X4194302Y7659878D02*
G01*
X4268215Y7466076D01*
X4148074Y7530592D02*
G01*
X4240529Y7530592D01*
X4329175Y7659878D02*
G01*
X4329175Y7466076D01*
X4390136Y7659878D02*
G01*
X4390136Y7466076D01*
X4390136Y7659878D02*
G01*
X4519422Y7466076D01*
X4519422Y7659878D02*
G01*
X4519422Y7466076D01*
X4580381Y7659878D02*
G01*
X4580381Y7466076D01*
X4580381Y7659878D02*
G01*
X4663440Y7659878D01*
X4691125Y7650734D01*
X4700270Y7641589D01*
X4709668Y7623047D01*
X4709668Y7604505D01*
X4700270Y7585963D01*
X4691125Y7576820D01*
X4663440Y7567676D01*
X4580381Y7567676D02*
G01*
X4663440Y7567676D01*
X4691125Y7558278D01*
X4700270Y7549134D01*
X4709668Y7530592D01*
X4709668Y7502905D01*
X4700270Y7484363D01*
X4691125Y7475220D01*
X4663440Y7466076D01*
X4580381Y7466076D01*
X4826000Y7659878D02*
G01*
X4807458Y7650734D01*
X4789170Y7632192D01*
X4779772Y7613650D01*
X4770627Y7585963D01*
X4770627Y7539989D01*
X4779772Y7512050D01*
X4789170Y7493762D01*
X4807458Y7475220D01*
X4826000Y7466076D01*
X4862829Y7466076D01*
X4881372Y7475220D01*
X4899913Y7493762D01*
X4909058Y7512050D01*
X4918456Y7539989D01*
X4918456Y7585963D01*
X4909058Y7613650D01*
X4899913Y7632192D01*
X4881372Y7650734D01*
X4862829Y7659878D01*
X4826000Y7659878D01*
X5053329Y7659878D02*
G01*
X4979415Y7466076D01*
X5053329Y7659878D02*
G01*
X5126990Y7466076D01*
X5007102Y7530592D02*
G01*
X5099304Y7530592D01*
X5187950Y7659878D02*
G01*
X5187950Y7466076D01*
X5187950Y7659878D02*
G01*
X5271261Y7659878D01*
X5298947Y7650734D01*
X5308091Y7641589D01*
X5317490Y7623047D01*
X5317490Y7604505D01*
X5308091Y7585963D01*
X5298947Y7576820D01*
X5271261Y7567676D01*
X5187950Y7567676D01*
X5252720Y7567676D02*
G01*
X5317490Y7466076D01*
X5378450Y7659878D02*
G01*
X5378450Y7466076D01*
X5378450Y7659878D02*
G01*
X5442965Y7659878D01*
X5470652Y7650734D01*
X5489193Y7632192D01*
X5498338Y7613650D01*
X5507736Y7585963D01*
X5507736Y7539989D01*
X5498338Y7512050D01*
X5489193Y7493762D01*
X5470652Y7475220D01*
X5442965Y7466076D01*
X5378450Y7466076D01*
D11*
X6756400Y5830570D02*
G01*
X6756400Y5709157D01*
X6756400Y5830570D02*
G01*
X6808470Y5830570D01*
X6825741Y5824728D01*
X6831329Y5818886D01*
X6837172Y5807455D01*
X6837172Y5795771D01*
X6831329Y5784342D01*
X6825741Y5778500D01*
X6808470Y5772657D01*
X6756400Y5772657D01*
X6796786Y5772657D02*
G01*
X6837172Y5709157D01*
X6944613Y5789929D02*
G01*
X6944613Y5709157D01*
X6944613Y5772657D02*
G01*
X6932929Y5784342D01*
X6921500Y5789929D01*
X6904227Y5789929D01*
X6892543Y5784342D01*
X6881113Y5772657D01*
X6875272Y5755386D01*
X6875272Y5743955D01*
X6881113Y5726429D01*
X6892543Y5715000D01*
X6904227Y5709157D01*
X6921500Y5709157D01*
X6932929Y5715000D01*
X6944613Y5726429D01*
X7046213Y5772657D02*
G01*
X7040372Y5784342D01*
X7023100Y5789929D01*
X7005827Y5789929D01*
X6988556Y5784342D01*
X6982713Y5772657D01*
X6988556Y5761228D01*
X6999986Y5755386D01*
X7028941Y5749544D01*
X7040372Y5743955D01*
X7046213Y5732271D01*
X7046213Y5726429D01*
X7040372Y5715000D01*
X7023100Y5709157D01*
X7005827Y5709157D01*
X6988556Y5715000D01*
X6982713Y5726429D01*
X7084313Y5789929D02*
G01*
X7084313Y5668771D01*
X7084313Y5772657D02*
G01*
X7095743Y5784342D01*
X7107427Y5789929D01*
X7124700Y5789929D01*
X7136129Y5784342D01*
X7147813Y5772657D01*
X7153656Y5755386D01*
X7153656Y5743955D01*
X7147813Y5726429D01*
X7136129Y5715000D01*
X7124700Y5709157D01*
X7107427Y5709157D01*
X7095743Y5715000D01*
X7084313Y5726429D01*
X7191756Y5830570D02*
G01*
X7191756Y5709157D01*
X7191756Y5772657D02*
G01*
X7203186Y5784342D01*
X7214870Y5789929D01*
X7232141Y5789929D01*
X7243572Y5784342D01*
X7255256Y5772657D01*
X7260843Y5755386D01*
X7260843Y5743955D01*
X7255256Y5726429D01*
X7243572Y5715000D01*
X7232141Y5709157D01*
X7214870Y5709157D01*
X7203186Y5715000D01*
X7191756Y5726429D01*
X7298943Y5755386D02*
G01*
X7368286Y5755386D01*
X7368286Y5767070D01*
X7362443Y5778500D01*
X7356856Y5784342D01*
X7345172Y5789929D01*
X7327900Y5789929D01*
X7316470Y5784342D01*
X7304786Y5772657D01*
X7298943Y5755386D01*
X7298943Y5743955D01*
X7304786Y5726429D01*
X7316470Y5715000D01*
X7327900Y5709157D01*
X7345172Y5709157D01*
X7356856Y5715000D01*
X7368286Y5726429D01*
X7406386Y5789929D02*
G01*
X7406386Y5709157D01*
X7406386Y5755386D02*
G01*
X7412227Y5772657D01*
X7423658Y5784342D01*
X7435341Y5789929D01*
X7452613Y5789929D01*
X7490713Y5789929D02*
G01*
X7490713Y5709157D01*
X7490713Y5755386D02*
G01*
X7496556Y5772657D01*
X7507986Y5784342D01*
X7519670Y5789929D01*
X7536941Y5789929D01*
X7580629Y5789929D02*
G01*
X7615427Y5709157D01*
X7649972Y5789929D02*
G01*
X7615427Y5709157D01*
X7603743Y5686044D01*
X7592313Y5674613D01*
X7580629Y5668771D01*
X7575041Y5668771D01*
X7776972Y5830570D02*
G01*
X7776972Y5709157D01*
X7776972Y5830570D02*
G01*
X7829041Y5830570D01*
X7846313Y5824728D01*
X7852156Y5818886D01*
X7857743Y5807455D01*
X7857743Y5789929D01*
X7852156Y5778500D01*
X7846313Y5772657D01*
X7829041Y5767070D01*
X7776972Y5767070D01*
X7895843Y5830570D02*
G01*
X7901686Y5824728D01*
X7907527Y5830570D01*
X7901686Y5836157D01*
X7895843Y5830570D01*
X7901686Y5789929D02*
G01*
X7901686Y5709157D01*
X8034527Y5830570D02*
G01*
X8034527Y5709157D01*
X8034527Y5830570D02*
G01*
X8086343Y5830570D01*
X8103870Y5824728D01*
X8109458Y5818886D01*
X8115300Y5807455D01*
X8115300Y5789929D01*
X8109458Y5778500D01*
X8103870Y5772657D01*
X8086343Y5767070D01*
X8034527Y5767070D01*
X8153400Y5830570D02*
G01*
X8159241Y5824728D01*
X8164829Y5830570D01*
X8159241Y5836157D01*
X8153400Y5830570D01*
X8159241Y5789929D02*
G01*
X8159241Y5709157D01*
X8272272Y5772657D02*
G01*
X8260841Y5784342D01*
X8249158Y5789929D01*
X8231886Y5789929D01*
X8220456Y5784342D01*
X8208772Y5772657D01*
X8202929Y5755386D01*
X8202929Y5743955D01*
X8208772Y5726429D01*
X8220456Y5715000D01*
X8231886Y5709157D01*
X8249158Y5709157D01*
X8260841Y5715000D01*
X8272272Y5726429D01*
X8339327Y5789929D02*
G01*
X8327643Y5784342D01*
X8316213Y5772657D01*
X8310372Y5755386D01*
X8310372Y5743955D01*
X8316213Y5726429D01*
X8327643Y5715000D01*
X8339327Y5709157D01*
X8356600Y5709157D01*
X8368029Y5715000D01*
X8379713Y5726429D01*
X8385556Y5743955D01*
X8385556Y5755386D01*
X8379713Y5772657D01*
X8368029Y5784342D01*
X8356600Y5789929D01*
X8339327Y5789929D01*
D12*
X-125221Y5537707D02*
G01*
X-130555Y5548121D01*
X-140970Y5558536D01*
X-151129Y5563615D01*
X-171957Y5563615D01*
X-182371Y5558536D01*
X-192786Y5548121D01*
X-198120Y5537707D01*
X-203200Y5521960D01*
X-203200Y5496052D01*
X-198120Y5480557D01*
X-192786Y5470144D01*
X-182371Y5459729D01*
X-171957Y5454650D01*
X-151129Y5454650D01*
X-140970Y5459729D01*
X-130555Y5470144D01*
X-125221Y5480557D01*
X-90931Y5542787D02*
G01*
X-80518Y5548121D01*
X-65023Y5563615D01*
X-65023Y5454650D01*
X890778Y7963408D02*
G01*
X885444Y7973821D01*
X875029Y7984236D01*
X864870Y7989315D01*
X844042Y7989315D01*
X833628Y7984236D01*
X823213Y7973821D01*
X817879Y7963408D01*
X812800Y7947660D01*
X812800Y7921752D01*
X817879Y7906258D01*
X823213Y7895844D01*
X833628Y7885429D01*
X844042Y7880350D01*
X864870Y7880350D01*
X875029Y7885429D01*
X885444Y7895844D01*
X890778Y7906258D01*
X930147Y7963408D02*
G01*
X930147Y7968487D01*
X935481Y7978902D01*
X940562Y7984236D01*
X950976Y7989315D01*
X971804Y7989315D01*
X982218Y7984236D01*
X987297Y7978902D01*
X992631Y7968487D01*
X992631Y7958073D01*
X987297Y7947660D01*
X976884Y7932165D01*
X925068Y7880350D01*
X997712Y7880350D01*
X1601978Y4699507D02*
G01*
X1596644Y4709921D01*
X1586229Y4720336D01*
X1576070Y4725415D01*
X1555242Y4725415D01*
X1544828Y4720336D01*
X1534413Y4709921D01*
X1529079Y4699507D01*
X1524000Y4683760D01*
X1524000Y4657852D01*
X1529079Y4642357D01*
X1534413Y4631944D01*
X1544828Y4621529D01*
X1555242Y4616450D01*
X1576070Y4616450D01*
X1586229Y4621529D01*
X1596644Y4631944D01*
X1601978Y4642357D01*
X1646681Y4725415D02*
G01*
X1703831Y4725415D01*
X1672589Y4683760D01*
X1688084Y4683760D01*
X1698497Y4678679D01*
X1703831Y4673600D01*
X1708912Y4657852D01*
X1708912Y4647437D01*
X1703831Y4631944D01*
X1693418Y4621529D01*
X1677670Y4616450D01*
X1662176Y4616450D01*
X1646681Y4621529D01*
X1641347Y4626610D01*
X1636268Y4637023D01*
X941578Y5372607D02*
G01*
X936244Y5383021D01*
X925829Y5393436D01*
X915670Y5398515D01*
X894842Y5398515D01*
X884428Y5393436D01*
X874013Y5383021D01*
X868679Y5372607D01*
X863600Y5356860D01*
X863600Y5330952D01*
X868679Y5315457D01*
X874013Y5305044D01*
X884428Y5294629D01*
X894842Y5289550D01*
X915670Y5289550D01*
X925829Y5294629D01*
X936244Y5305044D01*
X941578Y5315457D01*
X1027684Y5398515D02*
G01*
X975868Y5325871D01*
X1053845Y5325871D01*
X1027684Y5398515D02*
G01*
X1027684Y5289550D01*
X2148077Y7760208D02*
G01*
X2142743Y7770621D01*
X2132329Y7781036D01*
X2122170Y7786115D01*
X2101341Y7786115D01*
X2090927Y7781036D01*
X2080513Y7770621D01*
X2075179Y7760208D01*
X2070100Y7744460D01*
X2070100Y7718552D01*
X2075179Y7703058D01*
X2080513Y7692644D01*
X2090927Y7682229D01*
X2101341Y7677150D01*
X2122170Y7677150D01*
X2132329Y7682229D01*
X2142743Y7692644D01*
X2148077Y7703058D01*
X2244597Y7786115D02*
G01*
X2192781Y7786115D01*
X2187447Y7739379D01*
X2192781Y7744460D01*
X2208275Y7749794D01*
X2223770Y7749794D01*
X2239518Y7744460D01*
X2249931Y7734300D01*
X2255011Y7718552D01*
X2255011Y7708137D01*
X2249931Y7692644D01*
X2239518Y7682229D01*
X2223770Y7677150D01*
X2208275Y7677150D01*
X2192781Y7682229D01*
X2187447Y7687310D01*
X2182368Y7697723D01*
X2603500Y5474715D02*
G01*
X2603500Y5365750D01*
X2603500Y5474715D02*
G01*
X2639822Y5474715D01*
X2655570Y5469636D01*
X2665729Y5459221D01*
X2671063Y5448807D01*
X2676143Y5433060D01*
X2676143Y5407152D01*
X2671063Y5391657D01*
X2665729Y5381244D01*
X2655570Y5370829D01*
X2639822Y5365750D01*
X2603500Y5365750D01*
X2710434Y5453887D02*
G01*
X2720847Y5459221D01*
X2736595Y5474715D01*
X2736595Y5365750D01*
X-506729Y4118315D02*
G01*
X-506729Y4035257D01*
X-512063Y4019509D01*
X-517144Y4014429D01*
X-527557Y4009349D01*
X-537971Y4009349D01*
X-548386Y4014429D01*
X-553720Y4019509D01*
X-558800Y4035257D01*
X-558800Y4045671D01*
X-472439Y4097487D02*
G01*
X-462279Y4102821D01*
X-446531Y4118315D01*
X-446531Y4009349D01*
X-506729Y3798315D02*
G01*
X-506729Y3715257D01*
X-512063Y3699510D01*
X-517144Y3694429D01*
X-527557Y3689350D01*
X-537971Y3689350D01*
X-548386Y3694429D01*
X-553720Y3699510D01*
X-558800Y3715257D01*
X-558800Y3725671D01*
X-467360Y3772407D02*
G01*
X-467360Y3777487D01*
X-462279Y3787902D01*
X-456945Y3793236D01*
X-446531Y3798315D01*
X-425704Y3798315D01*
X-415289Y3793236D01*
X-410210Y3787902D01*
X-405129Y3777487D01*
X-405129Y3767073D01*
X-410210Y3756660D01*
X-420623Y3741165D01*
X-472439Y3689350D01*
X-399795Y3689350D01*
X-506729Y3478316D02*
G01*
X-506729Y3395258D01*
X-512063Y3379510D01*
X-517144Y3374430D01*
X-527557Y3369350D01*
X-537971Y3369350D01*
X-548386Y3374430D01*
X-553720Y3379510D01*
X-558800Y3395258D01*
X-558800Y3405672D01*
X-462279Y3478316D02*
G01*
X-405129Y3478316D01*
X-436118Y3436660D01*
X-420623Y3436660D01*
X-410210Y3431580D01*
X-405129Y3426500D01*
X-399795Y3410752D01*
X-399795Y3400338D01*
X-405129Y3384844D01*
X-415289Y3374430D01*
X-431037Y3369350D01*
X-446531Y3369350D01*
X-462279Y3374430D01*
X-467360Y3379510D01*
X-472439Y3389924D01*
X3519170Y4103115D02*
G01*
X3519170Y4020057D01*
X3513836Y4004310D01*
X3508756Y3999229D01*
X3498341Y3994150D01*
X3487927Y3994150D01*
X3477513Y3999229D01*
X3472179Y4004310D01*
X3467100Y4020057D01*
X3467100Y4030471D01*
X3605275Y4103115D02*
G01*
X3553459Y4030471D01*
X3631184Y4030471D01*
X3605275Y4103115D02*
G01*
X3605275Y3994150D01*
X3519170Y3804665D02*
G01*
X3519170Y3721607D01*
X3513836Y3705860D01*
X3508756Y3700779D01*
X3498341Y3695700D01*
X3487927Y3695700D01*
X3477513Y3700779D01*
X3472179Y3705860D01*
X3467100Y3721607D01*
X3467100Y3732021D01*
X3615690Y3804665D02*
G01*
X3563620Y3804665D01*
X3558540Y3757929D01*
X3563620Y3763010D01*
X3579368Y3768344D01*
X3594861Y3768344D01*
X3610609Y3763010D01*
X3620770Y3752850D01*
X3626104Y3737102D01*
X3626104Y3726687D01*
X3620770Y3711194D01*
X3610609Y3700779D01*
X3594861Y3695700D01*
X3579368Y3695700D01*
X3563620Y3700779D01*
X3558540Y3705860D01*
X3553459Y3716273D01*
X3519170Y3506215D02*
G01*
X3519170Y3423157D01*
X3513836Y3407410D01*
X3508756Y3402329D01*
X3498341Y3397250D01*
X3487927Y3397250D01*
X3477513Y3402329D01*
X3472179Y3407410D01*
X3467100Y3423157D01*
X3467100Y3433571D01*
X3615690Y3490721D02*
G01*
X3610609Y3501136D01*
X3594861Y3506215D01*
X3584447Y3506215D01*
X3568954Y3501136D01*
X3558540Y3485387D01*
X3553459Y3459479D01*
X3553459Y3433571D01*
X3558540Y3412744D01*
X3568954Y3402329D01*
X3584447Y3397250D01*
X3589781Y3397250D01*
X3605275Y3402329D01*
X3615690Y3412744D01*
X3620770Y3428237D01*
X3620770Y3433571D01*
X3615690Y3449065D01*
X3605275Y3459479D01*
X3589781Y3464560D01*
X3584447Y3464560D01*
X3568954Y3459479D01*
X3558540Y3449065D01*
X3553459Y3433571D01*
X5487670Y4077715D02*
G01*
X5487670Y3994657D01*
X5482336Y3978910D01*
X5477256Y3973829D01*
X5466841Y3968750D01*
X5456427Y3968750D01*
X5446013Y3973829D01*
X5440679Y3978910D01*
X5435600Y3994657D01*
X5435600Y4005071D01*
X5594604Y4077715D02*
G01*
X5542534Y3968750D01*
X5521959Y4077715D02*
G01*
X5594604Y4077715D01*
X5487670Y3757716D02*
G01*
X5487670Y3674658D01*
X5482336Y3658910D01*
X5477256Y3653830D01*
X5466841Y3648750D01*
X5456427Y3648750D01*
X5446013Y3653830D01*
X5440679Y3658910D01*
X5435600Y3674658D01*
X5435600Y3685072D01*
X5547868Y3757716D02*
G01*
X5532120Y3752636D01*
X5527040Y3742222D01*
X5527040Y3731808D01*
X5532120Y3721394D01*
X5542534Y3716060D01*
X5563361Y3710980D01*
X5579109Y3705900D01*
X5589270Y3695486D01*
X5594604Y3685072D01*
X5594604Y3669324D01*
X5589270Y3658910D01*
X5584190Y3653830D01*
X5568695Y3648750D01*
X5547868Y3648750D01*
X5532120Y3653830D01*
X5527040Y3658910D01*
X5521959Y3669324D01*
X5521959Y3685072D01*
X5527040Y3695486D01*
X5537454Y3705900D01*
X5552947Y3710980D01*
X5573775Y3716060D01*
X5584190Y3721394D01*
X5589270Y3731808D01*
X5589270Y3742222D01*
X5584190Y3752636D01*
X5568695Y3757716D01*
X5547868Y3757716D01*
X5487670Y3437717D02*
G01*
X5487670Y3354659D01*
X5482336Y3338911D01*
X5477256Y3333831D01*
X5466841Y3328751D01*
X5456427Y3328751D01*
X5446013Y3333831D01*
X5440679Y3338911D01*
X5435600Y3354659D01*
X5435600Y3365073D01*
X5589270Y3401395D02*
G01*
X5584190Y3385901D01*
X5573775Y3375487D01*
X5558281Y3370153D01*
X5552947Y3370153D01*
X5537454Y3375487D01*
X5527040Y3385901D01*
X5521959Y3401395D01*
X5521959Y3406475D01*
X5527040Y3422223D01*
X5537454Y3432637D01*
X5552947Y3437717D01*
X5558281Y3437717D01*
X5573775Y3432637D01*
X5584190Y3422223D01*
X5589270Y3401395D01*
X5589270Y3375487D01*
X5584190Y3349325D01*
X5573775Y3333831D01*
X5558281Y3328751D01*
X5547868Y3328751D01*
X5532120Y3333831D01*
X5527040Y3344245D01*
X-570229Y7836915D02*
G01*
X-570229Y7753858D01*
X-575563Y7738110D01*
X-580644Y7733029D01*
X-591057Y7727950D01*
X-601471Y7727950D01*
X-611886Y7733029D01*
X-617220Y7738110D01*
X-622300Y7753858D01*
X-622300Y7764271D01*
X-535939Y7816087D02*
G01*
X-525779Y7821421D01*
X-510031Y7836915D01*
X-510031Y7727950D01*
X-444500Y7836915D02*
G01*
X-460247Y7831836D01*
X-470662Y7816087D01*
X-475742Y7790179D01*
X-475742Y7774686D01*
X-470662Y7748523D01*
X-460247Y7733029D01*
X-444500Y7727950D01*
X-434339Y7727950D01*
X-418592Y7733029D01*
X-408178Y7748523D01*
X-403097Y7774686D01*
X-403097Y7790179D01*
X-408178Y7816087D01*
X-418592Y7831836D01*
X-434339Y7836915D01*
X-444500Y7836915D01*
X-570229Y7516916D02*
G01*
X-570229Y7433858D01*
X-575563Y7418110D01*
X-580644Y7413030D01*
X-591057Y7407950D01*
X-601471Y7407950D01*
X-611886Y7413030D01*
X-617220Y7418110D01*
X-622300Y7433858D01*
X-622300Y7444272D01*
X-535939Y7496088D02*
G01*
X-525779Y7501422D01*
X-510031Y7516916D01*
X-510031Y7407950D01*
X-475742Y7496088D02*
G01*
X-465328Y7501422D01*
X-449834Y7516916D01*
X-449834Y7407950D01*
X-570229Y7196917D02*
G01*
X-570229Y7113859D01*
X-575563Y7098111D01*
X-580644Y7093031D01*
X-591057Y7087951D01*
X-601471Y7087951D01*
X-611886Y7093031D01*
X-617220Y7098111D01*
X-622300Y7113859D01*
X-622300Y7124273D01*
X-535939Y7176089D02*
G01*
X-525779Y7181423D01*
X-510031Y7196917D01*
X-510031Y7087951D01*
X-470662Y7171009D02*
G01*
X-470662Y7176089D01*
X-465328Y7186503D01*
X-460247Y7191837D01*
X-449834Y7196917D01*
X-429005Y7196917D01*
X-418592Y7191837D01*
X-413512Y7186503D01*
X-408178Y7176089D01*
X-408178Y7165675D01*
X-413512Y7155261D01*
X-423926Y7139767D01*
X-475742Y7087951D01*
X-403097Y7087951D01*
X3544570Y7836915D02*
G01*
X3544570Y7753858D01*
X3539236Y7738110D01*
X3534156Y7733029D01*
X3523741Y7727950D01*
X3513327Y7727950D01*
X3502913Y7733029D01*
X3497579Y7738110D01*
X3492500Y7753858D01*
X3492500Y7764271D01*
X3578859Y7816087D02*
G01*
X3589020Y7821421D01*
X3604768Y7836915D01*
X3604768Y7727950D01*
X3649472Y7836915D02*
G01*
X3706622Y7836915D01*
X3675379Y7795260D01*
X3690874Y7795260D01*
X3701288Y7790179D01*
X3706622Y7785100D01*
X3711702Y7769352D01*
X3711702Y7758937D01*
X3706622Y7743444D01*
X3696208Y7733029D01*
X3680459Y7727950D01*
X3664965Y7727950D01*
X3649472Y7733029D01*
X3644138Y7738110D01*
X3639058Y7748523D01*
X3544570Y7516916D02*
G01*
X3544570Y7433858D01*
X3539236Y7418110D01*
X3534156Y7413030D01*
X3523741Y7407950D01*
X3513327Y7407950D01*
X3502913Y7413030D01*
X3497579Y7418110D01*
X3492500Y7433858D01*
X3492500Y7444272D01*
X3578859Y7496088D02*
G01*
X3589020Y7501422D01*
X3604768Y7516916D01*
X3604768Y7407950D01*
X3690874Y7516916D02*
G01*
X3639058Y7444272D01*
X3717036Y7444272D01*
X3690874Y7516916D02*
G01*
X3690874Y7407950D01*
X3544570Y7196917D02*
G01*
X3544570Y7113859D01*
X3539236Y7098111D01*
X3534156Y7093031D01*
X3523741Y7087951D01*
X3513327Y7087951D01*
X3502913Y7093031D01*
X3497579Y7098111D01*
X3492500Y7113859D01*
X3492500Y7124273D01*
X3578859Y7176089D02*
G01*
X3589020Y7181423D01*
X3604768Y7196917D01*
X3604768Y7087951D01*
X3701288Y7196917D02*
G01*
X3649472Y7196917D01*
X3644138Y7150181D01*
X3649472Y7155261D01*
X3664965Y7160595D01*
X3680459Y7160595D01*
X3696208Y7155261D01*
X3706622Y7145101D01*
X3711702Y7129353D01*
X3711702Y7118939D01*
X3706622Y7103445D01*
X3696208Y7093031D01*
X3680459Y7087951D01*
X3664965Y7087951D01*
X3649472Y7093031D01*
X3644138Y7098111D01*
X3639058Y7108525D01*
X6529070Y7862315D02*
G01*
X6529070Y7779258D01*
X6523736Y7763510D01*
X6518656Y7758429D01*
X6508241Y7753350D01*
X6497827Y7753350D01*
X6487413Y7758429D01*
X6482079Y7763510D01*
X6477000Y7779258D01*
X6477000Y7789671D01*
X6563359Y7841487D02*
G01*
X6573520Y7846821D01*
X6589268Y7862315D01*
X6589268Y7753350D01*
X6685788Y7846821D02*
G01*
X6680708Y7857236D01*
X6664959Y7862315D01*
X6654800Y7862315D01*
X6639052Y7857236D01*
X6628638Y7841487D01*
X6623558Y7815579D01*
X6623558Y7789671D01*
X6628638Y7768844D01*
X6639052Y7758429D01*
X6654800Y7753350D01*
X6659879Y7753350D01*
X6675374Y7758429D01*
X6685788Y7768844D01*
X6691122Y7784337D01*
X6691122Y7789671D01*
X6685788Y7805165D01*
X6675374Y7815579D01*
X6659879Y7820660D01*
X6654800Y7820660D01*
X6639052Y7815579D01*
X6628638Y7805165D01*
X6623558Y7789671D01*
X6529070Y7542316D02*
G01*
X6529070Y7459258D01*
X6523736Y7443510D01*
X6518656Y7438430D01*
X6508241Y7433350D01*
X6497827Y7433350D01*
X6487413Y7438430D01*
X6482079Y7443510D01*
X6477000Y7459258D01*
X6477000Y7469672D01*
X6563359Y7521488D02*
G01*
X6573520Y7526822D01*
X6589268Y7542316D01*
X6589268Y7433350D01*
X6696202Y7542316D02*
G01*
X6644386Y7433350D01*
X6623558Y7542316D02*
G01*
X6696202Y7542316D01*
X6529070Y7222317D02*
G01*
X6529070Y7139259D01*
X6523736Y7123511D01*
X6518656Y7118431D01*
X6508241Y7113351D01*
X6497827Y7113351D01*
X6487413Y7118431D01*
X6482079Y7123511D01*
X6477000Y7139259D01*
X6477000Y7149673D01*
X6563359Y7201489D02*
G01*
X6573520Y7206823D01*
X6589268Y7222317D01*
X6589268Y7113351D01*
X6649465Y7222317D02*
G01*
X6633972Y7217237D01*
X6628638Y7206823D01*
X6628638Y7196409D01*
X6633972Y7185995D01*
X6644386Y7180661D01*
X6664959Y7175581D01*
X6680708Y7170501D01*
X6691122Y7160087D01*
X6696202Y7149673D01*
X6696202Y7133925D01*
X6691122Y7123511D01*
X6685788Y7118431D01*
X6670293Y7113351D01*
X6649465Y7113351D01*
X6633972Y7118431D01*
X6628638Y7123511D01*
X6623558Y7133925D01*
X6623558Y7149673D01*
X6628638Y7160087D01*
X6639052Y7170501D01*
X6654800Y7175581D01*
X6675374Y7180661D01*
X6685788Y7185995D01*
X6691122Y7196409D01*
X6691122Y7206823D01*
X6685788Y7217237D01*
X6670293Y7222317D01*
X6649465Y7222317D01*
X2082800Y7087615D02*
G01*
X2082800Y6978650D01*
X2082800Y6978650D02*
G01*
X2145029Y6978650D01*
X2179320Y7066787D02*
G01*
X2189734Y7072121D01*
X2205481Y7087615D01*
X2205481Y6978650D01*
X7150100Y7176515D02*
G01*
X7150100Y7067550D01*
X7150100Y7067550D02*
G01*
X7212329Y7067550D01*
X7246620Y7176515D02*
G01*
X7246620Y7067550D01*
X7246620Y7176515D02*
G01*
X7314184Y7176515D01*
X7246620Y7124700D02*
G01*
X7288275Y7124700D01*
X7246620Y7067550D02*
G01*
X7314184Y7067550D01*
X7348474Y7176515D02*
G01*
X7348474Y7067550D01*
X7348474Y7176515D02*
G01*
X7385050Y7176515D01*
X7400543Y7171436D01*
X7410958Y7161021D01*
X7416038Y7150608D01*
X7421372Y7134860D01*
X7421372Y7108952D01*
X7416038Y7093458D01*
X7410958Y7083044D01*
X7400543Y7072629D01*
X7385050Y7067550D01*
X7348474Y7067550D01*
X7455661Y7155687D02*
G01*
X7466075Y7161021D01*
X7481570Y7176515D01*
X7481570Y7067550D01*
X876300Y3569715D02*
G01*
X876300Y3460750D01*
X876300Y3569715D02*
G01*
X923036Y3569715D01*
X938529Y3564636D01*
X943863Y3559302D01*
X948944Y3548887D01*
X948944Y3538473D01*
X943863Y3528060D01*
X938529Y3522979D01*
X923036Y3517900D01*
X876300Y3517900D01*
X912621Y3517900D02*
G01*
X948944Y3460750D01*
X983234Y3548887D02*
G01*
X993647Y3554221D01*
X1009395Y3569715D01*
X1009395Y3460750D01*
X2184400Y4560315D02*
G01*
X2184400Y4451350D01*
X2184400Y4560315D02*
G01*
X2231136Y4560315D01*
X2246629Y4555236D01*
X2251963Y4549902D01*
X2257043Y4539487D01*
X2257043Y4529073D01*
X2251963Y4518660D01*
X2246629Y4513579D01*
X2231136Y4508500D01*
X2184400Y4508500D01*
X2220722Y4508500D02*
G01*
X2257043Y4451350D01*
X2296668Y4534407D02*
G01*
X2296668Y4539487D01*
X2301747Y4549902D01*
X2307081Y4555236D01*
X2317495Y4560315D01*
X2338070Y4560315D01*
X2348484Y4555236D01*
X2353818Y4549902D01*
X2358897Y4539487D01*
X2358897Y4529073D01*
X2353818Y4518660D01*
X2343404Y4503165D01*
X2291334Y4451350D01*
X2364231Y4451350D01*
X8318500Y7328915D02*
G01*
X8318500Y7219950D01*
X8318500Y7328915D02*
G01*
X8365236Y7328915D01*
X8380729Y7323836D01*
X8386063Y7318502D01*
X8391143Y7308087D01*
X8391143Y7297673D01*
X8386063Y7287260D01*
X8380729Y7282179D01*
X8365236Y7277100D01*
X8318500Y7277100D01*
X8354822Y7277100D02*
G01*
X8391143Y7219950D01*
X8435847Y7328915D02*
G01*
X8492997Y7328915D01*
X8462009Y7287260D01*
X8477504Y7287260D01*
X8487918Y7282179D01*
X8492997Y7277100D01*
X8498331Y7261352D01*
X8498331Y7250937D01*
X8492997Y7235444D01*
X8482584Y7225029D01*
X8467090Y7219950D01*
X8451595Y7219950D01*
X8435847Y7225029D01*
X8430768Y7230110D01*
X8425434Y7240523D01*
X1079500Y6770115D02*
G01*
X1079500Y6692137D01*
X1084579Y6676644D01*
X1094994Y6666229D01*
X1110742Y6661150D01*
X1121155Y6661150D01*
X1136650Y6666229D01*
X1147063Y6676644D01*
X1152144Y6692137D01*
X1152144Y6770115D01*
X1186434Y6749287D02*
G01*
X1196847Y6754621D01*
X1212595Y6770115D01*
X1212595Y6661150D01*
X4521200Y7290815D02*
G01*
X4521200Y7212837D01*
X4526279Y7197344D01*
X4536693Y7186929D01*
X4552441Y7181850D01*
X4562856Y7181850D01*
X4578350Y7186929D01*
X4588763Y7197344D01*
X4593843Y7212837D01*
X4593843Y7290815D01*
X4633468Y7264908D02*
G01*
X4633468Y7269987D01*
X4638547Y7280402D01*
X4643881Y7285736D01*
X4654295Y7290815D01*
X4674870Y7290815D01*
X4685284Y7285736D01*
X4690618Y7280402D01*
X4695697Y7269987D01*
X4695697Y7259573D01*
X4690618Y7249160D01*
X4680204Y7233665D01*
X4628134Y7181850D01*
X4701031Y7181850D01*
X-838200Y6363715D02*
G01*
X-838200Y6285737D01*
X-833120Y6270244D01*
X-822705Y6259829D01*
X-806957Y6254750D01*
X-796544Y6254750D01*
X-781050Y6259829D01*
X-770636Y6270244D01*
X-765555Y6285737D01*
X-765555Y6363715D01*
X-720852Y6363715D02*
G01*
X-663702Y6363715D01*
X-694689Y6322060D01*
X-679195Y6322060D01*
X-668781Y6316979D01*
X-663702Y6311900D01*
X-658368Y6296152D01*
X-658368Y6285737D01*
X-663702Y6270244D01*
X-674115Y6259829D01*
X-689610Y6254750D01*
X-705104Y6254750D01*
X-720852Y6259829D01*
X-725931Y6264910D01*
X-731265Y6275323D01*
X7797800Y3671315D02*
G01*
X7797800Y3562350D01*
X7797800Y3671315D02*
G01*
X7834122Y3671315D01*
X7849870Y3666236D01*
X7860029Y3655821D01*
X7865363Y3645407D01*
X7870443Y3629660D01*
X7870443Y3603752D01*
X7865363Y3588257D01*
X7860029Y3577844D01*
X7849870Y3567429D01*
X7834122Y3562350D01*
X7797800Y3562350D01*
X7910068Y3645407D02*
G01*
X7910068Y3650487D01*
X7915147Y3660902D01*
X7920481Y3666236D01*
X7930895Y3671315D01*
X7951470Y3671315D01*
X7961884Y3666236D01*
X7967218Y3660902D01*
X7972297Y3650487D01*
X7972297Y3640073D01*
X7967218Y3629660D01*
X7956804Y3614165D01*
X7904734Y3562350D01*
X7977631Y3562350D01*
G36*
X-38100Y4635500D02*
G01*
X63500Y4559300D01*
X215900Y4508500D01*
X368300Y4483100D01*
X469900Y4508500D01*
X673100Y4635500D01*
G37*
G36*
X956919Y7754924D02*
G01*
X944168Y7740903D01*
X932027Y7726425D01*
X920546Y7711389D01*
X909726Y7695844D01*
X899617Y7679893D01*
X890168Y7663484D01*
X881481Y7646670D01*
X873506Y7629550D01*
X866292Y7612075D01*
X859840Y7594295D01*
X854151Y7576210D01*
X849274Y7557973D01*
X845210Y7539481D01*
X841908Y7520838D01*
X839469Y7502093D01*
X837844Y7483246D01*
X836980Y7464348D01*
X836980Y7445451D01*
X837844Y7426553D01*
X839469Y7407706D01*
X841908Y7388961D01*
X845210Y7370318D01*
X849274Y7351826D01*
X854151Y7333589D01*
X859840Y7315504D01*
X866292Y7297724D01*
X873506Y7280249D01*
X881481Y7263130D01*
X890168Y7246315D01*
X899617Y7229906D01*
X909726Y7213955D01*
X920546Y7198410D01*
X932027Y7183374D01*
X944168Y7168896D01*
X956919Y7154875D01*
G37*
D13*
X10676407Y4557991D02*
G01*
X10703407Y4557001D01*
X10703407Y6656997D01*
X5603417Y6656997D01*
X5603417Y4557001D01*
X10703407Y4557001D01*
X10947400Y5987986D02*
G01*
X10947400Y5225986D01*
X10312400Y5225986D01*
X10312400Y5987986D01*
X10947400Y5987986D01*
D14*
X317500Y5448300D02*
G01*
X317500Y5346700D01*
X393700Y5397500D02*
G01*
X241300Y5397500D01*
X1451899Y7334900D02*
G01*
X1576359Y7334900D01*
X1514129Y7402210D02*
G01*
X1514129Y7267590D01*
X1457703Y4656510D02*
G01*
X1457700Y4106509D01*
X1107696Y4106509D02*
G01*
X1107699Y4656515D01*
X1457703Y4656510D02*
G01*
X1385074Y4656510D01*
X1180325Y4656510D02*
G01*
X1107699Y4656510D01*
X1457700Y4106509D02*
G01*
X1378653Y4106509D01*
X1186746Y4106509D02*
G01*
X1107696Y4106509D01*
X1107696Y4957389D02*
G01*
X1107699Y5507390D01*
X1457703Y5507390D02*
G01*
X1457700Y4957384D01*
X1107696Y4957389D02*
G01*
X1180325Y4957389D01*
X1385074Y4957389D02*
G01*
X1457700Y4957389D01*
X1107699Y5507390D02*
G01*
X1186746Y5507390D01*
X1378653Y5507390D02*
G01*
X1457703Y5507390D01*
X1883989Y7617203D02*
G01*
X2433990Y7617200D01*
X2433990Y7267196D02*
G01*
X1883984Y7267199D01*
X1883989Y7617203D02*
G01*
X1883989Y7544574D01*
X1883989Y7339825D02*
G01*
X1883989Y7267199D01*
X2433990Y7617200D02*
G01*
X2433990Y7538153D01*
X2433990Y7346246D02*
G01*
X2433990Y7267196D01*
X2214300Y5314198D02*
G01*
X3094299Y5314198D01*
X3094299Y4744199D01*
X2214300Y4744199D01*
X2214300Y5314198D01*
X2364071Y5299199D02*
G01*
X2364071Y4759200D01*
X2404711Y5299199D02*
G01*
X2404711Y4775200D01*
D10*
X-145287Y4195998D02*
G01*
X-335787Y4195998D01*
X-335787Y3941998D01*
X426212Y3941998D01*
X426212Y4195998D01*
D15*
X426212Y4195998D02*
G01*
X-145287Y4195998D01*
D10*
X-145287Y3875999D02*
G01*
X-335787Y3875999D01*
X-335787Y3621999D01*
X426212Y3621999D01*
X426212Y3875999D01*
D15*
X426212Y3875999D02*
G01*
X-145287Y3875999D01*
D10*
X-145287Y3556000D02*
G01*
X-335787Y3556000D01*
X-335787Y3302000D01*
X426212Y3302000D01*
X426212Y3556000D01*
D15*
X426212Y3556000D02*
G01*
X-145287Y3556000D01*
D10*
X2854706Y4195998D02*
G01*
X2664206Y4195998D01*
X2664206Y3941998D01*
X3426206Y3941998D01*
X3426206Y4195998D01*
D15*
X3426206Y4195998D02*
G01*
X2854706Y4195998D01*
D10*
X2854706Y3875999D02*
G01*
X2664206Y3875999D01*
X2664206Y3621999D01*
X3426206Y3621999D01*
X3426206Y3875999D01*
D15*
X3426206Y3875999D02*
G01*
X2854706Y3875999D01*
D10*
X2854706Y3556000D02*
G01*
X2664206Y3556000D01*
X2664206Y3302000D01*
X3426206Y3302000D01*
X3426206Y3556000D01*
D15*
X3426206Y3556000D02*
G01*
X2854706Y3556000D01*
D10*
X5854700Y4195998D02*
G01*
X5664200Y4195998D01*
X5664200Y3941998D01*
X6426200Y3941998D01*
X6426200Y4195998D01*
D15*
X6426200Y4195998D02*
G01*
X5854700Y4195998D01*
D10*
X5854700Y3875999D02*
G01*
X5664200Y3875999D01*
X5664200Y3621999D01*
X6426200Y3621999D01*
X6426200Y3875999D01*
D15*
X6426200Y3875999D02*
G01*
X5854700Y3875999D01*
D10*
X5854700Y3556000D02*
G01*
X5664200Y3556000D01*
X5664200Y3302000D01*
X6426200Y3302000D01*
X6426200Y3556000D01*
D15*
X6426200Y3556000D02*
G01*
X5854700Y3556000D01*
D10*
X-145287Y7917098D02*
G01*
X-335787Y7917098D01*
X-335787Y7663098D01*
X426212Y7663098D01*
X426212Y7917098D01*
D15*
X426212Y7917098D02*
G01*
X-145287Y7917098D01*
D10*
X-145287Y7597099D02*
G01*
X-335787Y7597099D01*
X-335787Y7343099D01*
X426212Y7343099D01*
X426212Y7597099D01*
D15*
X426212Y7597099D02*
G01*
X-145287Y7597099D01*
D10*
X-145287Y7277100D02*
G01*
X-335787Y7277100D01*
X-335787Y7023100D01*
X426212Y7023100D01*
X426212Y7277100D01*
D15*
X426212Y7277100D02*
G01*
X-145287Y7277100D01*
D10*
X2854706Y7917098D02*
G01*
X2664206Y7917098D01*
X2664206Y7663098D01*
X3426206Y7663098D01*
X3426206Y7917098D01*
D15*
X3426206Y7917098D02*
G01*
X2854706Y7917098D01*
D10*
X2854706Y7597099D02*
G01*
X2664206Y7597099D01*
X2664206Y7343099D01*
X3426206Y7343099D01*
X3426206Y7597099D01*
D15*
X3426206Y7597099D02*
G01*
X2854706Y7597099D01*
D10*
X2854706Y7277100D02*
G01*
X2664206Y7277100D01*
X2664206Y7023100D01*
X3426206Y7023100D01*
X3426206Y7277100D01*
D15*
X3426206Y7277100D02*
G01*
X2854706Y7277100D01*
D10*
X5854700Y7917098D02*
G01*
X5664200Y7917098D01*
X5664200Y7663098D01*
X6426200Y7663098D01*
X6426200Y7917098D01*
D15*
X6426200Y7917098D02*
G01*
X5854700Y7917098D01*
D10*
X5854700Y7597099D02*
G01*
X5664200Y7597099D01*
X5664200Y7343099D01*
X6426200Y7343099D01*
X6426200Y7597099D01*
D15*
X6426200Y7597099D02*
G01*
X5854700Y7597099D01*
D10*
X5854700Y7277100D02*
G01*
X5664200Y7277100D01*
X5664200Y7023100D01*
X6426200Y7023100D01*
X6426200Y7277100D01*
D15*
X6426200Y7277100D02*
G01*
X5854700Y7277100D01*
D14*
X3200400Y5886785D02*
G01*
X3200400Y5549900D01*
X1828800Y5549900D01*
X1828800Y5880100D01*
X1828800Y6483014D02*
G01*
X1828800Y6819900D01*
X3200400Y6819900D01*
X3200400Y6489700D01*
X7079503Y7635699D02*
G01*
X7079503Y7375700D01*
X1562178Y3746500D02*
G01*
X1455300Y3746500D01*
X805299Y3746903D02*
G01*
X698421Y3746903D01*
X1455300Y3861501D02*
G01*
X1455300Y3631498D01*
X1455300Y3631498D02*
G01*
X805299Y3631498D01*
X805299Y3634501D02*
G01*
X805299Y3858498D01*
X805299Y3861501D02*
G01*
X1455300Y3861501D01*
X2006600Y3771894D02*
G01*
X2006600Y3695694D01*
X2006600Y4432294D02*
G01*
X2006600Y4508494D01*
X1892300Y3784587D02*
G01*
X1892300Y4432287D01*
X2120900Y4432287D01*
X2120900Y3784587D01*
X1892300Y3784587D01*
X8709659Y7625079D02*
G01*
X8709659Y7386320D01*
X8709659Y7386320D02*
G01*
X8079740Y7386320D01*
X8079740Y7386320D02*
G01*
X8079740Y7625079D01*
X8079740Y7625079D02*
G01*
X8709659Y7625079D01*
X742076Y5702297D02*
G01*
X588406Y5702297D01*
X588406Y6718297D01*
X742076Y6718297D01*
X3947159Y6446520D02*
G01*
X3947159Y6565900D01*
X3947159Y7096760D01*
X5247640Y7096760D01*
X5247640Y6565900D01*
X3947159Y6565900D01*
X5196840Y6581139D02*
G01*
X5196840Y7030720D01*
X5008879Y7030720D01*
X5008879Y6695439D01*
X4823459Y6695439D01*
X4823459Y7030720D01*
X4635500Y7030720D01*
X4635500Y6695439D01*
X4447540Y6695439D01*
X4447540Y7030720D01*
X4259579Y7030720D01*
X4259579Y6695439D01*
X4071620Y6695439D01*
X4071620Y7030720D01*
X3997959Y7030720D01*
X5176520Y4406900D02*
G01*
X5247640Y4406900D01*
X5247640Y4526279D01*
X5247640Y4645660D02*
G01*
X5247640Y4676139D01*
X5247640Y4798060D02*
G01*
X5247640Y4826000D01*
X5247640Y4947920D02*
G01*
X5247640Y4975860D01*
X5247640Y5097779D02*
G01*
X5247640Y5125720D01*
X5247640Y5247639D02*
G01*
X5247640Y5278120D01*
X5247640Y5397500D02*
G01*
X5247640Y5427979D01*
X5247640Y5547360D02*
G01*
X5247640Y5577839D01*
X5247640Y5697220D02*
G01*
X5247640Y5727700D01*
X5247640Y5847079D02*
G01*
X5247640Y5877560D01*
X5247640Y5996939D02*
G01*
X5247640Y6027420D01*
X5247640Y6146800D02*
G01*
X5247640Y6177279D01*
X5247640Y6296660D02*
G01*
X5247640Y6327139D01*
X5247640Y6446520D02*
G01*
X5247640Y6565900D01*
X3947159Y6296660D02*
G01*
X3947159Y6327139D01*
X3947159Y6146800D02*
G01*
X3947159Y6177279D01*
X3947159Y5996939D02*
G01*
X3947159Y6027420D01*
X3947159Y5847079D02*
G01*
X3947159Y5877560D01*
X3947159Y5697220D02*
G01*
X3947159Y5727700D01*
X3947159Y5547360D02*
G01*
X3947159Y5577839D01*
X3947159Y5397500D02*
G01*
X3947159Y5427979D01*
X3947159Y5247639D02*
G01*
X3947159Y5278120D01*
X3947159Y5097779D02*
G01*
X3947159Y5125720D01*
X3947159Y4947920D02*
G01*
X3947159Y4975860D01*
X3947159Y4798060D02*
G01*
X3947159Y4826000D01*
X3947159Y4645660D02*
G01*
X3947159Y4676139D01*
X3947159Y4526279D02*
G01*
X3947159Y4406900D01*
X4018279Y4406900D01*
X4127500Y4406900D02*
G01*
X4168140Y4406900D01*
X4277359Y4406900D02*
G01*
X4318000Y4406900D01*
X4427220Y4406900D02*
G01*
X4467859Y4406900D01*
X4577079Y4406900D02*
G01*
X4617720Y4406900D01*
X4726940Y4406900D02*
G01*
X4767579Y4406900D01*
X4876800Y4406900D02*
G01*
X4917440Y4406900D01*
X5026659Y4406900D02*
G01*
X5067300Y4406900D01*
X-396600Y5492000D02*
G01*
X-1046599Y5492000D01*
X-955039Y6191999D02*
G01*
X-955039Y5492000D01*
X-485139Y6191999D02*
G01*
X-485139Y5492000D01*
X-396600Y6191999D02*
G01*
X-1046599Y6191999D01*
X-396600Y5492000D02*
G01*
X-396600Y6191999D01*
X-1046599Y5492000D02*
G01*
X-1046599Y6191999D01*
X-958850Y6095994D02*
G01*
X-958850Y5943594D01*
X-1047750Y5943594D01*
X-1047750Y6095994D01*
X-958850Y6095994D01*
X-958850Y5753094D02*
G01*
X-958850Y5600694D01*
X-1047750Y5600694D01*
X-1047750Y5753094D01*
X-958850Y5753094D01*
X8146699Y3733500D02*
G01*
X7626700Y3733500D01*
X7626700Y3733500D02*
G01*
X7626700Y4013499D01*
X8146699Y4013499D02*
G01*
X7626700Y4013499D01*
X8146699Y3733500D02*
G01*
X8146699Y4013499D01*
X8050773Y3733500D02*
G01*
X8050773Y4013499D01*
G75*
G01*
X1231646Y7054850D02*
G03*
X1224534Y7054850I-3556J399984D01*
G75*
G01*
X7082333Y7367524D02*
G03*
X7082333Y7643876I220244J138176D01*
G75*
G01
X817499Y4991100D02*
G03X817499Y4991100I-499999J0D01*
G75*
G01
X322986Y6680200D02*
G03X322986Y6680200I-12700J0D01*
D16*
G75*
G01
X4051300Y6502400D02*
G03X4051300Y6502400I-25400J0D01*
M02*
